<svg width="24" height="24" viewBox="0 0 24 24" fill="none" xmlns="http://www.w3.org/2000/svg">
<path fill-rule="evenodd" clip-rule="evenodd" d="M3.57361 9.54553C4.19236 8.20907 5.03669 7.28012 5.93106 6.3815C6.82543 5.48289 7.99079 4.5197 9.22918 3.79859C11.0509 2.73783 12.5689 3.28157 13.8243 3.96002C15.0798 4.63849 16.1433 5.45056 17.0377 6.3492C17.9321 7.24784 18.9029 8.57948 19.2532 9.54023C19.8974 11.3074 20.0679 12.481 19.1907 14.1302C18.5769 15.2841 17.8678 16.105 16.9734 17.0037C16.8312 17.1465 16.6873 17.2939 16.541 17.4437L16.5408 17.4439L16.5408 17.4439C15.7668 18.2366 14.9262 19.0974 13.9288 19.7116C12.5326 20.5712 10.7412 20.3199 9.0685 19.522C7.8146 18.9238 7.16724 18.322 6.27287 17.4234C5.37847 16.5247 4.23423 15.236 3.70215 14.1302C2.92672 12.5187 2.79555 11.226 3.57361 9.54553ZM4.3839 9.65678C4.92365 8.49099 5.6212 7.56087 6.40139 6.77699C7.18158 5.9931 8.1745 5.14878 9.31737 4.64361C10.4411 4.14687 12.4246 4.30947 13.3258 4.78443C14.227 5.25938 15.3487 6.08467 16.1289 6.86856C16.9091 7.65245 17.9049 8.75528 18.2105 9.59336C18.7724 11.1349 19.0831 12.0993 18.6325 13.6267C18.3196 14.6874 17.3785 15.8362 16.6291 16.6201L16.4812 16.7751C15.6891 17.6068 14.2571 19.1103 13.2634 19.5141C11.7494 20.1294 10.25 19.455 8.94672 18.663C7.8459 17.9941 7.21135 17.3734 6.49264 16.5895C5.77392 15.8056 4.96017 14.6207 4.49603 13.6561C3.81964 12.2504 3.70519 11.1227 4.3839 9.65678Z" fill="#28ACD4"/>
<path fill-rule="evenodd" clip-rule="evenodd" d="M20.4236 9.54602C19.8048 8.20956 18.9605 7.2806 18.0661 6.38199C17.1718 5.48338 16.0064 4.52019 14.768 3.79908C12.9463 2.73832 11.4283 3.28205 10.1729 3.96051C8.91744 4.63898 7.85388 5.45105 6.95948 6.34969C6.0651 7.24833 5.09429 8.57997 4.74402 9.54072C4.09974 11.3078 3.92931 12.4815 4.80653 14.1307C5.4203 15.2846 6.12941 16.1055 7.02378 17.0041C7.16595 17.147 7.30987 17.2944 7.45618 17.4442L7.45635 17.4444L7.45636 17.4444C8.23042 18.2371 9.07096 19.0979 10.0684 19.7121C11.4646 20.5717 13.256 20.3204 14.9287 19.5224C16.1826 18.9243 16.83 18.3225 17.7243 17.4239C18.6187 16.5252 19.763 15.2365 20.295 14.1307C21.0705 12.5192 21.2016 11.2265 20.4236 9.54602ZM19.6149 9.65807C19.0751 8.49227 18.3776 7.56216 17.5974 6.77827C16.8172 5.99438 15.8243 5.15007 14.6814 4.6449C13.5577 4.14816 11.5742 4.31076 10.673 4.78572C9.77175 5.26067 8.65005 6.08596 7.86986 6.86985C7.08967 7.65373 6.09385 8.75656 5.78832 9.59464C5.22635 11.1361 4.91568 12.1006 5.36626 13.628C5.67922 14.6887 6.62026 15.8375 7.36971 16.6214L7.51755 16.7764C8.30965 17.6081 9.74172 19.1116 10.7354 19.5154C12.2494 20.1306 13.7488 19.4563 15.0521 18.6643C16.1529 17.9953 16.7874 17.3747 17.5062 16.5908C18.2249 15.8069 19.0386 14.6219 19.5028 13.6574C20.1792 12.2517 20.2936 11.124 19.6149 9.65807Z" fill="#28ACD4"/>
<mask id="mask0_251_14788" style="mask-type:luminance" maskUnits="userSpaceOnUse" x="2" y="2" width="20" height="20">
<path fill-rule="evenodd" clip-rule="evenodd" d="M2.00116 12.0281V11.8818C2.01297 11.1119 2.21151 10.325 2.62452 9.44814C3.36341 7.87905 4.47297 6.78848 5.541 5.73332C6.60925 4.67829 7.89984 3.54741 9.37886 2.70084C11.5545 1.45541 13.3675 2.09385 14.8669 2.8904C16.3662 3.68691 17.6364 4.64039 18.7046 5.6954C19.7727 6.75043 20.9322 8.31399 21.3506 9.44198C22.12 11.5166 22.3236 12.8946 21.2759 14.8308C20.5429 16.1856 19.696 17.1495 18.6277 18.2045C17.5596 19.2596 16.281 20.3001 14.8669 21.1612C12.8874 22.3666 11.1398 22.1864 9.18691 21.1612C7.63159 20.3445 6.91637 19.7523 5.84809 18.6972C4.78 17.6422 3.41348 16.1291 2.77797 14.8308C2.28953 13.833 2.01513 12.9394 2.00116 12.0281H2.00116ZM3.11894 9.46404C2.30822 11.1851 2.44482 12.5089 3.25276 14.1594C3.80712 15.292 4.99917 16.6118 5.93092 17.5322C6.86277 18.4525 7.48666 18.9691 8.84339 19.6815C10.547 20.5758 12.0714 20.733 13.7981 19.6815C15.0318 18.9303 16.1471 18.0227 17.0789 17.1023C18.0107 16.182 18.7495 15.3412 19.3889 14.1594C20.3028 12.4704 20.1252 11.2684 19.4541 9.4586C19.0891 8.47466 18.0777 7.11072 17.1459 6.19044C16.2141 5.27007 15.1061 4.43834 13.7981 3.74349C12.4903 3.04868 10.9087 2.49174 9.01084 3.57813C7.72072 4.31668 6.59486 5.30309 5.66302 6.2234C4.73137 7.14389 3.76347 8.09521 3.11894 9.46404Z" fill="white"/>
</mask>
<g mask="url(#mask0_251_14788)">
<path d="M2.0011 22.0018L57.5626 22.0018V1.99951L2.0011 1.99951L2.0011 22.0018Z" fill="#28ACD4"/>
</g>
<mask id="mask1_251_14788" style="mask-type:luminance" maskUnits="userSpaceOnUse" x="3" y="3" width="19" height="18">
<path fill-rule="evenodd" clip-rule="evenodd" d="M3.59192 12.0213V11.8983C3.60279 11.2517 3.78557 10.5907 4.16579 9.85409C4.84601 8.53606 5.86749 7.61998 6.85072 6.73365C7.83415 5.84742 9.02228 4.89748 10.3839 4.18636C12.3868 3.1402 14.0558 3.67649 15.4362 4.34559C16.8164 5.01466 17.9858 5.81559 18.9692 6.70179C19.9525 7.58802 21.02 8.90141 21.4051 9.84892C22.1135 11.5916 22.3008 12.7491 21.3364 14.3755C20.6615 15.5136 19.8819 16.3232 18.8984 17.2094C17.9151 18.0957 16.7381 18.9697 15.4362 19.6931C13.6139 20.7056 12.005 20.5542 10.2072 19.6931C8.77533 19.007 8.11689 18.5096 7.13343 17.6233C6.15014 16.7371 4.89211 15.4661 4.30706 14.3755C3.85739 13.5374 3.60478 12.7867 3.59192 12.0213H3.59192ZM4.6148 9.86637C3.86845 11.312 3.9942 12.4241 4.73799 13.8105C5.24833 14.7618 6.34575 15.8705 7.20352 16.6436C8.06139 17.4167 8.63575 17.8506 9.88476 18.4491C11.4531 19.2003 12.8565 19.3323 14.4461 18.4491C15.5818 17.8181 16.6086 17.0556 17.4664 16.2825C18.3242 15.5095 19.0044 14.8032 19.593 13.8105C20.4343 12.3917 20.2709 11.382 19.653 9.8618C19.317 9.0353 18.3859 7.88959 17.5281 7.11655C16.6703 6.34344 15.6503 5.64479 14.4461 5.06112C13.2421 4.47747 11.7861 4.00964 10.0389 4.92221C8.85122 5.54259 7.81475 6.37118 6.95689 7.14424C6.0992 7.91745 5.20816 8.71656 4.6148 9.86637Z" fill="white"/>
</mask>
<g mask="url(#mask1_251_14788)">
<path d="M3.59186 20.3991L54.7421 20.3991V3.59717L3.59186 3.59717L3.59186 20.3991Z" fill="#28ACD4"/>
</g>
<mask id="mask2_251_14788" style="mask-type:luminance" maskUnits="userSpaceOnUse" x="3" y="2" width="18" height="17">
<path fill-rule="evenodd" clip-rule="evenodd" d="M3.59033 10.3776V10.5006C3.60027 11.1473 3.76728 11.8083 4.11471 12.5448C4.73627 13.8629 5.66965 14.7789 6.56809 15.6653C7.46671 16.5515 8.55237 17.5014 9.79654 18.2126C11.6267 19.2587 13.1518 18.7224 14.4131 18.0533C15.6743 17.3843 16.7429 16.5833 17.6415 15.6971C18.54 14.8109 19.5154 13.4975 19.8673 12.55C20.5145 10.8073 20.6858 9.64978 19.8045 8.02338C19.1878 6.88534 18.4754 6.0757 17.5768 5.1895C16.6783 4.30325 15.6027 3.42921 14.4131 2.70585C12.748 1.69336 11.2778 1.84472 9.63507 2.70585C8.32672 3.39189 7.72507 3.88936 6.82642 4.77559C5.92793 5.66182 4.77839 6.93279 4.2438 8.02338C3.83291 8.86152 3.60209 9.6122 3.59033 10.3776H3.59033ZM4.52544 12.5282C3.84345 11.0825 3.95836 9.97045 4.63801 8.58406C5.10434 7.6327 6.10711 6.52401 6.89091 5.7509C7.67479 4.97784 8.19962 4.5439 9.34091 3.94545C10.774 3.19424 12.0564 3.06223 13.5089 3.94545C14.5467 4.57646 15.4849 5.33891 16.2687 6.11202C17.0525 6.88503 17.674 7.59132 18.2119 8.58406C18.9807 10.0028 18.8313 11.0125 18.2667 12.5327C17.9597 13.3592 17.1089 14.5049 16.325 15.278C15.5413 16.0511 14.6092 16.7497 13.5089 17.3334C12.4087 17.9171 11.0783 18.3849 9.48177 17.4723C8.39651 16.8519 7.44942 16.0234 6.66555 15.2503C5.88183 14.4771 5.06763 13.678 4.52544 12.5282Z" fill="white"/>
</mask>
<g mask="url(#mask2_251_14788)">
<path d="M3.59033 1.99932L50.3294 1.99932V18.8013L3.59033 18.8013L3.59033 1.99932Z" fill="#28ACD4"/>
</g>
<mask id="mask3_251_14788" style="mask-type:luminance" maskUnits="userSpaceOnUse" x="2" y="2" width="20" height="20">
<path fill-rule="evenodd" clip-rule="evenodd" d="M21.9965 12.0291V11.8827C21.9846 11.1129 21.7861 10.326 21.3731 9.44911C20.6342 7.88003 19.5246 6.78946 18.4566 5.7343C17.3884 4.67926 16.0978 3.54838 14.6188 2.70182C12.4431 1.45638 10.6302 2.09482 9.13076 2.89137C7.63145 3.68788 6.36121 4.64137 5.29303 5.69638C4.22487 6.75141 3.06539 8.31497 2.647 9.44296C1.87761 11.5176 1.67405 12.8956 2.72172 14.8318C3.45475 16.1866 4.30163 17.1505 5.36988 18.2055C6.438 19.2605 7.71657 20.301 9.13076 21.1622C11.1102 22.3675 12.8579 22.1873 14.8107 21.1622C16.366 20.3455 17.0812 19.7532 18.1495 18.6982C19.2176 17.6432 20.5841 16.1301 21.2196 14.8318C21.7081 13.834 21.9825 12.9404 21.9965 12.0291H21.9965ZM20.8782 9.46455C21.6889 11.1856 21.5523 12.5094 20.7444 14.1599C20.19 15.2925 18.998 16.6123 18.0662 17.5327C17.1344 18.453 16.5105 18.9696 15.1537 19.6821C13.4501 20.5764 11.9257 20.7335 10.199 19.6821C8.96532 18.9309 7.85 18.0232 6.91826 17.1028C5.98644 16.1826 5.24765 15.3417 4.60823 14.1599C3.69436 12.4709 3.87189 11.2689 4.54305 9.45911C4.90804 8.47518 5.91941 7.11123 6.85126 6.19096C7.78301 5.27059 8.89102 4.43885 10.199 3.74401C11.5068 3.04919 13.0884 2.49225 14.9863 3.57865C16.2764 4.31719 17.4023 5.3036 18.3341 6.22391C19.2658 7.14441 20.2337 8.09572 20.8782 9.46455Z" fill="white"/>
</mask>
<g mask="url(#mask3_251_14788)">
<path d="M21.9964 22.0028L-33.5651 22.0028V2.00049L21.9964 2.00049V22.0028Z" fill="#28ACD4"/>
</g>
<mask id="mask4_251_14788" style="mask-type:luminance" maskUnits="userSpaceOnUse" x="4" y="4" width="15" height="16">
<path fill-rule="evenodd" clip-rule="evenodd" d="M18.2551 13.7519C17.736 14.8989 16.9567 15.6961 16.2065 16.4674C15.4562 17.2386 14.5497 18.0652 13.5109 18.6841C11.9827 19.5945 10.7093 19.1279 9.65618 18.5456C8.60304 17.9633 7.71086 17.2663 6.96058 16.4951C6.21032 15.7238 5.39594 14.581 5.10211 13.7564C4.56165 12.2398 4.41868 11.2325 5.15455 9.8171C5.66942 8.82671 6.26424 8.12219 7.01452 7.35095C7.76478 6.5797 8.66285 5.8191 9.65618 5.18963C11.0465 4.30852 12.2425 4.50476 13.6457 5.18963C14.6975 5.70302 15.2406 6.21949 15.9908 6.99073C16.7411 7.76198 17.7009 8.86806 18.1473 9.8171C18.7978 11.2001 18.9078 12.3096 18.2551 13.7519ZM17.5914 13.6582C18.1607 12.4001 18.0647 11.4323 17.4973 10.2258C17.1079 9.39794 16.2707 8.43309 15.6162 7.76032C14.9617 7.08753 14.5235 6.70992 13.5704 6.18915C12.374 5.5354 10.5764 5.8601 10.0903 6.18915C9.30202 6.72292 8.44043 7.40177 7.78596 8.07455C7.13148 8.74732 6.61261 9.36188 6.16345 10.2258C5.52155 11.4605 5.64627 12.3392 6.11771 13.6621C6.37403 14.3814 7.08443 15.3784 7.7389 16.0512C8.3934 16.7239 9.33433 17.4322 10.0903 17.8399C10.8463 18.2475 12.5102 18.387 13.4529 17.9607C14.4116 17.5271 15.1824 16.7667 15.8368 16.0939C16.4913 15.4211 17.1386 14.6587 17.5914 13.6582Z" fill="white"/>
</mask>
<g mask="url(#mask4_251_14788)">
<path d="M1.99841 22.0048L57.56 22.0048V2.00244L1.99841 2.00244L1.99841 22.0048Z" fill="#28ACD4"/>
</g>
<mask id="mask5_251_14788" style="mask-type:luminance" maskUnits="userSpaceOnUse" x="5" y="4" width="15" height="16">
<path fill-rule="evenodd" clip-rule="evenodd" d="M5.74189 13.7519C6.26096 14.8989 7.04027 15.6961 7.79052 16.4674C8.5408 17.2386 9.44728 18.0652 10.4861 18.6841C12.0143 19.5945 13.2877 19.1279 14.3408 18.5456C15.394 17.9633 16.2861 17.2663 17.0364 16.4951C17.7867 15.7238 18.6011 14.581 18.8949 13.7564C19.4354 12.2398 19.5783 11.2325 18.8425 9.8171C18.3276 8.82671 17.7328 8.12219 16.9825 7.35095C16.2322 6.5797 15.3342 5.8191 14.3408 5.18963C12.9505 4.30852 11.7545 4.50476 10.3513 5.18963C9.29948 5.70302 8.75645 6.21949 8.0062 6.99073C7.25592 7.76198 6.29607 8.86806 5.84971 9.8171C5.19924 11.2001 5.0892 12.3096 5.74189 13.7519ZM6.40325 13.6592C5.83391 12.4011 5.92989 11.4333 6.49732 10.2268C6.88669 9.39897 7.72397 8.43412 8.37845 7.76135C9.03294 7.08856 9.47115 6.71095 10.4242 6.19018C11.6207 5.53643 13.4183 5.86113 13.9043 6.19018C14.6926 6.72395 15.5542 7.4028 16.2087 8.07558C16.8631 8.74834 17.382 9.36291 17.8312 10.2268C18.4731 11.4615 18.3484 12.3402 17.8769 13.6632C17.6206 14.3825 16.9102 15.3794 16.2557 16.0522C15.6012 16.725 14.6603 17.4333 13.9043 17.8409C13.1483 18.2485 11.4844 18.3881 10.5418 17.9617C9.58305 17.5282 8.81228 16.7677 8.15781 16.0949C7.50333 15.4221 6.85606 14.6598 6.40325 13.6592Z" fill="white"/>
</mask>
<g mask="url(#mask5_251_14788)">
<path d="M21.9933 22.0057L-33.5683 22.0057V2.00342L21.9933 2.00342V22.0057Z" fill="#28ACD4"/>
</g>
<mask id="mask6_251_14788" style="mask-type:luminance" maskUnits="userSpaceOnUse" x="4" y="4" width="17" height="17">
<path fill-rule="evenodd" clip-rule="evenodd" d="M19.6863 14.58C19.0846 15.8823 18.1809 16.7874 17.311 17.6632C16.441 18.5388 15.3899 19.4774 14.1853 20.18C12.4134 21.2137 10.9369 20.6838 9.71569 20.0227C8.4946 19.3616 7.46006 18.5702 6.59009 17.6946C5.72015 16.819 4.77577 15.5213 4.43507 14.5851C3.80845 12.8633 3.93591 11.7847 4.64492 10.1944C5.16887 9.01912 5.78272 8.18826 6.65269 7.31263C7.52265 6.43699 8.40745 5.69601 9.58325 5.02216C11.1291 4.13623 12.8175 4.10585 14.3417 4.85866C15.6296 5.49476 16.1909 6.02802 17.0609 6.90366C17.9308 7.77929 19.0438 9.03507 19.5614 10.1126C20.3157 11.6829 20.4432 12.9425 19.6863 14.58ZM19.2852 14.5657C19.9455 13.1373 19.8343 12.0385 19.1763 10.6687C18.7248 9.72873 17.7539 8.63329 16.9951 7.86943C16.2361 7.10561 15.728 6.67686 14.623 6.08556C13.2356 5.34333 11.994 5.21293 10.5877 6.08556C9.58298 6.70903 8.58712 7.424 7.82824 8.18782C7.06937 8.95164 6.55513 9.68786 6.03437 10.6687C5.29009 12.0705 5.43466 13.0682 5.98128 14.5702C6.27854 15.3868 7.10224 16.5188 7.86117 17.2826C8.62002 18.0465 9.52243 18.7368 10.5877 19.3135C11.6528 19.8901 12.941 20.3524 14.4867 19.4507C15.5374 18.8378 16.4543 18.0191 17.2132 17.2553C17.972 16.4913 18.7603 15.7017 19.2852 14.5657Z" fill="white"/>
</mask>
<g mask="url(#mask6_251_14788)">
<path d="M1.99652 22.0023L57.5581 22.0023V2L1.99652 2L1.99652 22.0023Z" fill="#28ACD4"/>
</g>
<mask id="mask7_251_14788" style="mask-type:luminance" maskUnits="userSpaceOnUse" x="3" y="3" width="19" height="18">
<path fill-rule="evenodd" clip-rule="evenodd" d="M4.34318 14.1685C4.98536 15.5582 5.94971 16.5241 6.87795 17.4586C7.80638 18.3931 8.92806 19.3947 10.2135 20.1444C12.1044 21.2475 13.6801 20.6821 14.9832 19.9766C16.2863 19.2711 17.3903 18.4266 18.3187 17.4922C19.247 16.5578 20.2548 15.173 20.6184 14.174C21.2871 12.3365 21.1511 11.1856 20.3944 9.48841C19.8353 8.23426 19.1803 7.34761 18.2519 6.41319C17.3235 5.47877 16.3793 4.68805 15.1246 3.96895C13.4749 3.02354 11.6732 2.99112 10.0467 3.79448C8.67233 4.47328 8.07331 5.04235 7.14485 5.97677C6.21655 6.91119 5.02888 8.25128 4.47655 9.40118C3.67156 11.0769 3.53551 12.4211 4.34318 14.1685ZM4.7667 14.145C4.06209 12.6207 4.18081 11.4482 4.88301 9.98638C5.3648 8.98328 6.40084 7.8143 7.21064 6.99915C8.02053 6.18405 8.56276 5.72651 9.74192 5.09552C11.2225 4.30346 12.5475 4.1643 14.0482 5.09552C15.1203 5.76085 16.1831 6.52382 16.9929 7.33892C17.8027 8.15402 18.3515 8.93967 18.9072 9.98638C19.7014 11.4823 19.5472 12.5469 18.9639 14.1498C18.6466 15.0212 17.7676 16.2292 16.9578 17.0443C16.1479 17.8595 15.185 18.5961 14.0482 19.2115C12.9115 19.8269 11.5369 20.3202 9.88745 19.358C8.76619 18.7039 7.78769 17.8302 6.9778 17.0151C6.16808 16.1999 5.32688 15.3573 4.7667 14.145Z" fill="white"/>
</mask>
<g mask="url(#mask7_251_14788)">
<path d="M23.2164 22.0811L-36.0754 22.0811V0.73584L23.2164 0.73584V22.0811Z" fill="#28ACD4"/>
</g>
</svg>
