<svg width="24" height="24" viewBox="0 0 24 24" fill="none" xmlns="http://www.w3.org/2000/svg">
<path d="M10.5656 21.3057L4.25038 16.3756C3.95108 16.142 3.89858 15.7099 4.13309 15.4109L14.4559 2.25048C14.6901 1.9519 15.122 1.89903 15.4208 2.13234L21.7361 7.06237C22.0354 7.296 22.0879 7.72807 21.8534 8.0271L11.5306 21.1875C11.2964 21.4861 10.8645 21.539 10.5656 21.3057Z" fill="#57AD7B"/>
<path d="M6.57839 21.7091L2.11681 15.0609C1.90527 14.7456 1.9898 14.3185 2.30555 14.1071L16.2125 4.79634C16.5278 4.5852 16.9546 4.66921 17.1659 4.98407L21.6274 11.6323C21.839 11.9476 21.7544 12.3747 21.4387 12.5861L7.53179 21.8968C7.21641 22.108 6.78969 22.024 6.57839 21.7091Z" fill="#81CDA1"/>
<path d="M21.6275 11.6325L17.1659 4.9842C16.9546 4.66934 16.5279 4.58532 16.2125 4.79646L15.6713 5.15879L20.0157 11.6325C20.2273 11.9477 20.1427 12.3748 19.827 12.5862L6.46124 21.5346L6.57842 21.7092C6.78972 22.0241 7.21644 22.1081 7.53182 21.897L21.4387 12.5862C21.7545 12.3748 21.839 11.9477 21.6275 11.6325Z" fill="#60BF88"/>
<path d="M15.5315 13.5654C15.6489 11.5459 14.1051 9.81358 12.0833 9.69609C10.0615 9.57859 8.32743 11.1204 8.21007 13.1399C8.0927 15.1594 9.63652 16.8918 11.6583 17.0093C13.6801 17.1268 15.4142 15.5849 15.5315 13.5654Z" fill="#29795D"/>
<path d="M4.20866 12.8329C5.12499 14.1983 4.75977 16.0472 3.39291 16.9623L2.11623 15.0599C1.90496 14.7451 1.9897 14.3185 2.30553 14.1071L4.20866 12.8329Z" fill="#29795D"/>
<path d="M5.30518 19.8119C6.67494 18.8948 8.52666 19.2559 9.44106 20.6185L7.53264 21.8962C7.21685 22.1076 6.78957 22.0238 6.57831 21.709L5.30518 19.8119Z" fill="#29795D"/>
<path d="M19.5365 13.8614C18.6202 12.496 18.9854 10.6472 20.3522 9.73206L21.6289 11.6344C21.8402 11.9492 21.7555 12.3758 21.4396 12.5873L19.5365 13.8614Z" fill="#29795D"/>
<path d="M18.44 6.88255C17.0702 7.79964 15.2185 7.43849 14.3041 6.0759L16.2125 4.79821C16.5283 4.58679 16.9556 4.6706 17.1668 4.98538L18.44 6.88255Z" fill="#29795D"/>
<path d="M16.4746 10.5673C16.3771 10.5673 16.2815 10.5203 16.2232 10.4332C16.1304 10.2945 16.1675 10.1068 16.3062 10.0139L17.7289 9.06146C17.8676 8.96867 18.0553 9.00578 18.1482 9.14447C18.241 9.28316 18.2038 9.47085 18.0652 9.56373L16.6425 10.5162C16.5909 10.5508 16.5324 10.5673 16.4746 10.5673Z" fill="#29795D"/>
<path d="M5.84755 17.6824C5.75007 17.6824 5.65446 17.6354 5.59615 17.5483C5.50331 17.4096 5.54046 17.2219 5.67916 17.1291L7.10178 16.1766C7.24044 16.0837 7.42813 16.1209 7.52104 16.2596C7.61388 16.3983 7.57673 16.586 7.43804 16.6788L6.01541 17.6313C5.96375 17.6659 5.90533 17.6824 5.84755 17.6824Z" fill="#29795D"/>
<path d="M13.2845 14.9528C13.7203 14.5037 13.7345 13.8824 13.5362 13.443C13.2773 12.8692 12.7066 12.6019 12.0821 12.7621C12.007 12.7813 11.93 12.8005 11.8525 12.8188L11.1669 11.7971C11.3391 11.7412 11.4733 11.7558 11.4866 11.7574C11.6507 11.7811 11.803 11.6684 11.8283 11.5044C11.8538 11.3395 11.7407 11.1851 11.5757 11.1596C11.5548 11.1564 11.2122 11.1077 10.8223 11.2837L10.6893 11.0856C10.5963 10.947 10.4087 10.9101 10.27 11.0031C10.1314 11.0961 10.0945 11.2838 10.1875 11.4224L10.3325 11.6386C10.3088 11.664 10.2853 11.6902 10.2622 11.7182C9.99584 12.0418 9.93742 12.4931 10.1098 12.8961C10.2674 13.2646 10.5848 13.5096 10.9382 13.5357C11.1175 13.5488 11.3195 13.5358 11.5764 13.4922L12.4587 14.8068C12.2838 14.9018 12.1432 14.9314 11.8792 14.9346C11.7123 14.9366 11.5786 15.0735 11.5807 15.2404C11.5826 15.406 11.7175 15.539 11.8827 15.539H11.8865C12.2983 15.534 12.5361 15.4606 12.7965 15.3102L12.9454 15.5322C13.0037 15.6191 13.0993 15.666 13.1966 15.666C13.2545 15.666 13.3131 15.6494 13.3648 15.6147C13.5033 15.5217 13.5403 15.334 13.4473 15.1954L13.2845 14.9528ZM10.9827 12.9329C10.8575 12.9237 10.733 12.816 10.6656 12.6584C10.6078 12.5233 10.5876 12.3303 10.6856 12.1646L11.1999 12.9309C11.1224 12.9366 11.0492 12.9379 10.9827 12.9329V12.9329ZM12.2323 13.3475C12.7297 13.22 12.9343 13.5786 12.9853 13.6916C13.0809 13.9034 13.0881 14.191 12.9322 14.4276L12.211 13.3529C12.2182 13.3511 12.225 13.3494 12.2323 13.3475Z" fill="#81CDA1"/>
</svg>
