<svg width="24" height="24" viewBox="0 0 24 24" fill="none" xmlns="http://www.w3.org/2000/svg">
<g clip-path="url(#clip0_1373_14370)">
<path d="M6.40491 14.2679V20.7531C6.3692 20.7545 6.3335 20.7549 6.29764 20.7549C6.26163 20.7549 6.22592 20.7545 6.19022 20.7531V14.2679C6.22592 14.2666 6.26163 14.2661 6.29764 14.2661C6.3335 14.2661 6.3692 14.2666 6.40491 14.2679Z" fill="url(#paint0_linear_1373_14370)"/>
<path d="M9.54196 17.5103C9.54196 17.5464 9.5415 17.5821 9.54013 17.6178H3.05499C3.05362 17.5821 3.05316 17.5464 3.05316 17.5103C3.05316 17.4745 3.05362 17.4388 3.05499 17.4031H9.54013C9.5415 17.4388 9.54196 17.4745 9.54196 17.5103Z" fill="url(#paint1_linear_1373_14370)"/>
<path d="M8.66626 15.2938L4.08084 19.8792C4.0285 19.8303 3.97769 19.7796 3.92886 19.7273L6.19022 17.4659L6.25308 17.4032L8.03516 15.6211L8.51428 15.1418C8.56662 15.1907 8.61743 15.2415 8.66626 15.2938Z" fill="url(#paint2_linear_1373_14370)"/>
<path d="M8.66626 19.7273C8.61743 19.7796 8.56662 19.8304 8.51428 19.8792L8.03516 19.4L6.40491 17.7699L3.92886 15.2938C3.97769 15.2415 4.0285 15.1907 4.08084 15.1418L8.66626 19.7273Z" fill="url(#paint3_linear_1373_14370)"/>
<path d="M6.29764 14.9539C4.88559 14.9539 3.74103 16.0984 3.74103 17.5105C3.74103 18.9224 4.88559 20.0671 6.29764 20.0671C7.70953 20.0671 8.8541 18.9224 8.8541 17.5105C8.8541 16.0984 7.70953 14.9539 6.29764 14.9539ZM6.29764 19.5333C5.18024 19.5333 4.27448 18.6277 4.27448 17.5103C4.27448 16.3931 5.18024 15.4873 6.29764 15.4873C7.41489 15.4873 8.32065 16.3931 8.32065 17.5103C8.32065 18.6277 7.41489 19.5333 6.29764 19.5333Z" fill="url(#paint4_linear_1373_14370)"/>
<path d="M6.29764 14.2661C4.5058 14.2661 3.05331 15.7188 3.05331 17.5104C3.05331 19.3023 4.5058 20.7548 6.29764 20.7548C8.08932 20.7548 9.54181 19.3023 9.54181 17.5104C9.54181 15.7188 8.08932 14.2661 6.29764 14.2661ZM6.29764 19.8194C5.02246 19.8194 3.98868 18.7858 3.98868 17.5104C3.98868 16.2353 5.02231 15.2016 6.29764 15.2016C7.57281 15.2016 8.60645 16.2353 8.60645 17.5104C8.60645 18.7856 7.57281 19.8194 6.29764 19.8194Z" fill="url(#paint5_radial_1373_14370)"/>
<path d="M7.75684 17.5106C7.75684 18.3166 7.10345 18.9698 6.29764 18.9698C5.49167 18.9698 4.83829 18.3166 4.83829 17.5106C4.83829 16.7047 5.49167 16.0513 6.29764 16.0513C7.10345 16.0513 7.75684 16.7047 7.75684 17.5106Z" fill="url(#paint6_linear_1373_14370)"/>
<path d="M7.71869 17.8413L6.8587 16.9813C6.71802 16.8322 6.51874 16.739 6.29749 16.739C5.87131 16.739 5.52585 17.0845 5.52585 17.5105C5.52585 17.7318 5.61908 17.931 5.76831 18.0717L6.6283 18.9317C7.16861 18.8066 7.59341 18.3815 7.71869 17.8413Z" fill="url(#paint7_linear_1373_14370)"/>
<path d="M7.06912 17.5107C7.06912 17.9367 6.72366 18.2821 6.29764 18.2821C5.87146 18.2821 5.526 17.9367 5.526 17.5107C5.526 17.0845 5.87146 16.739 6.29764 16.739C6.72366 16.739 7.06912 17.0845 7.06912 17.5107Z" fill="url(#paint8_radial_1373_14370)"/>
<path d="M18.8629 14.2679V20.7531C18.8272 20.7545 18.7915 20.7549 18.7555 20.7549C18.7197 20.7549 18.6838 20.7545 18.6483 20.7531V14.2679C18.684 14.2666 18.7197 14.2661 18.7555 14.2661C18.7915 14.2661 18.8272 14.2666 18.8629 14.2679Z" fill="url(#paint9_linear_1373_14370)"/>
<path d="M22 17.5103C22 17.5464 21.9994 17.5821 21.9982 17.6178H15.513C15.5117 17.5821 15.5112 17.5464 15.5112 17.5103C15.5112 17.4745 15.5117 17.4388 15.513 17.4031H21.9982C21.9994 17.4388 22 17.4745 22 17.5103Z" fill="url(#paint10_linear_1373_14370)"/>
<path d="M21.1243 15.2938L18.6483 17.7699L17.018 19.4L16.5389 19.8792C16.4865 19.8303 16.4357 19.7796 16.3869 19.7273L18.4963 17.6179L18.6035 17.5105L18.6481 17.4659L18.711 17.4032L20.9723 15.1418C21.0247 15.1907 21.0755 15.2415 21.1243 15.2938Z" fill="url(#paint11_linear_1373_14370)"/>
<path d="M21.1243 19.7273C21.0755 19.7796 21.0247 19.8304 20.9723 19.8792L16.3869 15.2938C16.4357 15.2415 16.4865 15.1907 16.5389 15.1418L17.018 15.6211L18.7557 17.3586L21.1243 19.7273Z" fill="url(#paint12_linear_1373_14370)"/>
<path d="M18.7555 14.9539C17.3436 14.9539 16.1989 16.0984 16.1989 17.5105C16.1989 18.9224 17.3436 20.0671 18.7555 20.0671C20.1676 20.0671 21.3121 18.9224 21.3121 17.5105C21.3121 16.0984 20.1676 14.9539 18.7555 14.9539ZM18.7555 19.5333C17.6383 19.5333 16.7325 18.6277 16.7325 17.5103C16.7325 16.3931 17.6383 15.4873 18.7555 15.4873C19.8729 15.4873 20.7785 16.3931 20.7785 17.5103C20.7785 18.6277 19.8729 19.5333 18.7555 19.5333Z" fill="url(#paint13_linear_1373_14370)"/>
<path d="M18.7555 14.2661C16.9638 14.2661 15.5112 15.7188 15.5112 17.5104C15.5112 19.3023 16.9638 20.7548 18.7555 20.7548C20.5474 20.7548 21.9998 19.3023 21.9998 17.5104C21.9998 15.7188 20.5474 14.2661 18.7555 14.2661ZM18.7555 19.8194C17.4803 19.8194 16.4466 18.7858 16.4466 17.5104C16.4466 16.2353 17.4803 15.2016 18.7555 15.2016C20.0309 15.2016 21.0645 16.2353 21.0645 17.5104C21.0645 18.7856 20.0307 19.8194 18.7555 19.8194Z" fill="url(#paint14_radial_1373_14370)"/>
<path d="M20.2149 17.5106C20.2149 18.3166 19.5615 18.9698 18.7555 18.9698C17.9496 18.9698 17.2963 18.3166 17.2963 17.5106C17.2963 16.7047 17.9496 16.0513 18.7555 16.0513C19.5615 16.0513 20.2149 16.7047 20.2149 17.5106Z" fill="url(#paint15_linear_1373_14370)"/>
<path d="M20.1767 17.8413L19.3167 16.9813C19.1761 16.8322 18.9768 16.739 18.7555 16.739C18.3293 16.739 17.9839 17.0845 17.9839 17.5105C17.9839 17.7318 18.0771 17.931 18.2263 18.0717L19.0863 18.9317C19.6265 18.8066 20.0515 18.3815 20.1767 17.8413Z" fill="url(#paint16_linear_1373_14370)"/>
<path d="M19.5272 17.5107C19.5272 17.9367 19.1817 18.2821 18.7555 18.2821C18.3293 18.2821 17.9839 17.9367 17.9839 17.5107C17.9839 17.0845 18.3293 16.739 18.7555 16.739C19.1817 16.739 19.5272 17.0845 19.5272 17.5107Z" fill="url(#paint17_radial_1373_14370)"/>
<path d="M15.726 16.2701V17.2582C15.6133 17.3957 15.4431 17.4819 15.2538 17.4819H7.52063V13.2871H9.05872V14.7707C9.05872 15.599 9.7298 16.2701 10.558 16.2701H15.726Z" fill="url(#paint18_linear_1373_14370)"/>
<path d="M9.05872 17.4821H2.9996C2.44754 17.4821 2 17.0345 2 16.4826V15.0342C2 12.6279 3.95068 10.6772 6.35715 10.6772H11.2493C11.2493 11.2739 10.8614 11.8014 10.2919 11.9791L10.0489 12.055C9.21039 12.3167 9.05872 13.0932 9.05872 13.9716V17.4821Z" fill="url(#paint19_linear_1373_14370)"/>
<path d="M21.2239 14.5269C21.3646 14.8293 21.0404 15.1331 20.7437 14.9805C20.2036 14.7025 19.5909 14.5455 18.942 14.5455C17.9413 14.5455 17.0273 14.9184 16.332 15.5332V12.7744H18.476C19.693 12.7744 20.7424 13.4919 21.2239 14.5269Z" fill="url(#paint20_linear_1373_14370)"/>
<path d="M17.8 12.7744H16.332V15.5332C17.0273 14.9184 17.9413 14.5455 18.942 14.5455C19.1773 14.5455 19.4077 14.5664 19.6317 14.6059L17.8 12.7744Z" fill="url(#paint21_linear_1373_14370)"/>
<path d="M17.8719 13.2551C17.9666 13.7334 17.7721 14.2228 17.3743 14.5048C16.5766 15.0703 16.0138 15.9454 15.8612 16.9549C15.844 17.0699 15.7959 17.1738 15.726 17.2582C15.6133 17.3957 15.4431 17.4819 15.2538 17.4819H13.9548V8.98185C13.9548 8.48197 14.3563 8.06983 14.8561 8.06694C15.4351 8.06358 15.9745 8.26683 16.3958 8.6132C16.8143 8.95713 17.1167 9.44099 17.2283 10.004L17.8719 13.2551Z" fill="url(#paint22_linear_1373_14370)"/>
<path d="M14.3222 8.18365H12.4922C12.2576 8.18365 12.0673 7.99338 12.0673 7.75854V7.51334C12.0673 7.27866 12.2576 7.08838 12.4922 7.08838H14.3222C14.5569 7.08838 14.7472 7.27866 14.7472 7.51334V7.75854C14.7472 7.99338 14.5569 8.18365 14.3222 8.18365Z" fill="url(#paint23_linear_1373_14370)"/>
<path d="M17.2283 10.004C17.1167 9.44099 16.8143 8.95728 16.3958 8.6132C15.9745 8.26697 15.4351 8.06373 14.8561 8.06693C14.6215 8.06831 14.4092 8.16062 14.2493 8.30909L17.5452 11.605L17.2283 10.004Z" fill="url(#paint24_linear_1373_14370)"/>
<path d="M16.9817 7.00662C16.9817 6.12375 16.6977 5.40796 16.3474 5.40796C15.9972 5.40796 15.7132 6.12375 15.7132 7.00662C15.7132 7.88965 15.9972 8.60529 16.3474 8.60529C16.6977 8.60529 16.9817 7.88965 16.9817 7.00662Z" fill="url(#paint25_linear_1373_14370)"/>
<path d="M16.2284 8.7197H15.3197C14.4371 8.7197 13.7218 8.00421 13.7218 7.1218V6.89169C13.7218 6.00928 14.4371 5.29395 15.3197 5.29395H16.2284C16.3886 5.29395 16.5183 5.42365 16.5183 5.58386V8.42978C16.5183 8.58984 16.3886 8.7197 16.2284 8.7197Z" fill="url(#paint26_linear_1373_14370)"/>
<path d="M6.50058 9.09253H10.669C11.1525 9.09253 11.5445 9.48453 11.5445 9.96808V10.3888C11.5445 10.5481 11.4153 10.6773 11.256 10.6773H5.91357C5.75427 10.6773 5.62518 10.5481 5.62518 10.3888V9.96808C5.62518 9.48453 6.01703 9.09253 6.50058 9.09253Z" fill="url(#paint27_linear_1373_14370)"/>
<path d="M8.84479 17.4821C8.92719 17.319 8.99875 17.1496 9.05872 16.9749V14.3539C8.51443 12.7662 7.00885 11.625 5.23669 11.625C5.22815 11.625 5.2196 11.625 5.21091 11.625C3.57364 11.6352 2.22491 12.8871 2.03098 14.5129C2.01053 14.6838 2 14.8579 2 15.0343V16.4826C2 17.0345 2.44754 17.4821 2.9996 17.4821H8.84479Z" fill="url(#paint28_linear_1373_14370)"/>
<path d="M6.23111 15.3535H3.93176C3.69144 15.3535 3.49673 15.1588 3.49673 14.9184C3.49673 14.6783 3.69144 14.4834 3.93176 14.4834H6.23111C6.47128 14.4834 6.66614 14.6781 6.66614 14.9184C6.66614 15.1588 6.47128 15.3535 6.23111 15.3535Z" fill="url(#paint29_linear_1373_14370)"/>
<path d="M6.23111 16.4567H3.93176C3.69144 16.4567 3.49673 16.262 3.49673 16.0217C3.49673 15.7815 3.69144 15.5867 3.93176 15.5867H6.23111C6.47128 15.5867 6.66614 15.7815 6.66614 16.0217C6.66614 16.262 6.47128 16.4567 6.23111 16.4567Z" fill="url(#paint30_linear_1373_14370)"/>
<path d="M8.64688 9.09244L3.41495 9.09167C3.24664 9.09167 3.11008 8.95511 3.11023 8.7868L3.11084 3.55487C3.11099 3.38641 3.24741 3.25 3.41586 3.25L8.6478 3.25076C8.81625 3.25076 8.95267 3.38733 8.95267 3.55563L8.9519 8.78772C8.9519 8.95602 8.81534 9.09244 8.64688 9.09244Z" fill="url(#paint31_linear_1373_14370)"/>
<path d="M5.15201 5.42401L8.20743 8.48019L8.26511 8.53131C8.33209 8.59067 8.4328 8.59067 8.49979 8.53146L8.49994 8.53131C8.56693 8.47195 8.66763 8.47195 8.73462 8.53131C8.79596 8.58578 8.88583 8.59021 8.9519 8.54474L8.95236 5.23251L6.97086 3.2504L5.0928 3.25024L5.0925 5.29141C5.0925 5.34207 5.11417 5.39044 5.15201 5.42401Z" fill="url(#paint32_linear_1373_14370)"/>
<path d="M6.97086 3.25055L6.97055 5.29172C6.97055 5.34238 6.94888 5.39059 6.91089 5.42416L6.85291 5.47543C6.78607 5.53479 6.68536 5.53464 6.61838 5.47543L6.61823 5.47528C6.55124 5.41592 6.45053 5.41592 6.38354 5.47528C6.31656 5.53464 6.21585 5.53464 6.14886 5.47528L6.14871 5.47513C6.08173 5.41577 5.98102 5.41592 5.91403 5.47513C5.84705 5.53448 5.74634 5.53448 5.67935 5.47513C5.61237 5.41577 5.51166 5.41577 5.44467 5.47498L5.44452 5.47513C5.37753 5.53448 5.27682 5.53448 5.20984 5.47513L5.15216 5.42386C5.11417 5.39029 5.0925 5.34207 5.0925 5.29141L5.0928 3.25024L6.97086 3.25055Z" fill="url(#paint33_linear_1373_14370)"/>
<path d="M3.11038 7.14868L3.11023 8.78671C3.11008 8.95517 3.24664 9.09158 3.41495 9.09174L8.64688 9.09235C8.81534 9.0925 8.9519 8.95593 8.9519 8.78763L8.95206 7.14944L3.11038 7.14868Z" fill="url(#paint34_linear_1373_14370)"/>
<path d="M3.58295 8.24756H4.8717V8.61911H3.58295V8.24756Z" fill="url(#paint35_linear_1373_14370)"/>
<path d="M3.5831 7.45947H5.62778V7.83102H3.5831V7.45947Z" fill="url(#paint36_linear_1373_14370)"/>
</g>
<defs>
<linearGradient id="paint0_linear_1373_14370" x1="6.19018" y1="17.5105" x2="6.40495" y2="17.5105" gradientUnits="userSpaceOnUse">
<stop stop-color="#575C55"/>
<stop offset="1" stop-color="#45425A"/>
</linearGradient>
<linearGradient id="paint1_linear_1373_14370" x1="3.05313" y1="17.5104" x2="9.542" y2="17.5104" gradientUnits="userSpaceOnUse">
<stop stop-color="#575C55"/>
<stop offset="1" stop-color="#45425A"/>
</linearGradient>
<linearGradient id="paint2_linear_1373_14370" x1="3.92888" y1="17.5106" x2="8.66626" y2="17.5106" gradientUnits="userSpaceOnUse">
<stop stop-color="#575C55"/>
<stop offset="1" stop-color="#45425A"/>
</linearGradient>
<linearGradient id="paint3_linear_1373_14370" x1="3.92888" y1="17.5106" x2="8.66626" y2="17.5106" gradientUnits="userSpaceOnUse">
<stop stop-color="#575C55"/>
<stop offset="1" stop-color="#45425A"/>
</linearGradient>
<linearGradient id="paint4_linear_1373_14370" x1="6.00115" y1="17.214" x2="9.83605" y2="21.0489" gradientUnits="userSpaceOnUse">
<stop stop-color="#FFD459"/>
<stop offset="0.2296" stop-color="#FFD355"/>
<stop offset="0.4362" stop-color="#FFCF4A"/>
<stop offset="0.634" stop-color="#FFC838"/>
<stop offset="0.825" stop-color="#FFBF1F"/>
<stop offset="1" stop-color="#FFB400"/>
</linearGradient>
<radialGradient id="paint5_radial_1373_14370" cx="0" cy="0" r="1" gradientUnits="userSpaceOnUse" gradientTransform="translate(6.18786 17.2911) scale(3.24432)">
<stop stop-color="#45425A"/>
<stop offset="0.4759" stop-color="#424059"/>
<stop offset="0.7742" stop-color="#3A3B56"/>
<stop offset="1" stop-color="#2D3251"/>
</radialGradient>
<linearGradient id="paint6_linear_1373_14370" x1="4.83828" y1="17.5106" x2="7.75686" y2="17.5106" gradientUnits="userSpaceOnUse">
<stop stop-color="#C6E56F"/>
<stop offset="0.3371" stop-color="#C4E56F"/>
<stop offset="0.4953" stop-color="#BCE36E"/>
<stop offset="0.6162" stop-color="#AFE16D"/>
<stop offset="0.7182" stop-color="#9DDD6B"/>
<stop offset="0.8083" stop-color="#85D968"/>
<stop offset="0.8899" stop-color="#68D365"/>
<stop offset="0.9635" stop-color="#46CD61"/>
<stop offset="1" stop-color="#32C95F"/>
</linearGradient>
<linearGradient id="paint7_linear_1373_14370" x1="7.70243" y1="18.9154" x2="6.37856" y2="17.5916" gradientUnits="userSpaceOnUse">
<stop offset="0.0029" stop-color="#00E7B2" stop-opacity="0"/>
<stop offset="0.4308" stop-color="#1BC4B7" stop-opacity="0.427451"/>
<stop offset="1" stop-color="#3B9ABE"/>
</linearGradient>
<radialGradient id="paint8_radial_1373_14370" cx="0" cy="0" r="1" gradientUnits="userSpaceOnUse" gradientTransform="translate(6.29757 17.5106) scale(0.771596)">
<stop stop-color="#45425A"/>
<stop offset="0.4759" stop-color="#424059"/>
<stop offset="0.7742" stop-color="#3A3B56"/>
<stop offset="1" stop-color="#2D3251"/>
</radialGradient>
<linearGradient id="paint9_linear_1373_14370" x1="18.6482" y1="17.5105" x2="18.863" y2="17.5105" gradientUnits="userSpaceOnUse">
<stop stop-color="#575C55"/>
<stop offset="1" stop-color="#45425A"/>
</linearGradient>
<linearGradient id="paint10_linear_1373_14370" x1="15.5111" y1="17.5104" x2="22" y2="17.5104" gradientUnits="userSpaceOnUse">
<stop stop-color="#575C55"/>
<stop offset="1" stop-color="#45425A"/>
</linearGradient>
<linearGradient id="paint11_linear_1373_14370" x1="16.3869" y1="17.5106" x2="21.1243" y2="17.5106" gradientUnits="userSpaceOnUse">
<stop stop-color="#575C55"/>
<stop offset="1" stop-color="#45425A"/>
</linearGradient>
<linearGradient id="paint12_linear_1373_14370" x1="16.3869" y1="17.5106" x2="21.1243" y2="17.5106" gradientUnits="userSpaceOnUse">
<stop stop-color="#575C55"/>
<stop offset="1" stop-color="#45425A"/>
</linearGradient>
<linearGradient id="paint13_linear_1373_14370" x1="18.4592" y1="17.214" x2="22.2941" y2="21.0489" gradientUnits="userSpaceOnUse">
<stop stop-color="#FFD459"/>
<stop offset="0.2296" stop-color="#FFD355"/>
<stop offset="0.4362" stop-color="#FFCF4A"/>
<stop offset="0.634" stop-color="#FFC838"/>
<stop offset="0.825" stop-color="#FFBF1F"/>
<stop offset="1" stop-color="#FFB400"/>
</linearGradient>
<radialGradient id="paint14_radial_1373_14370" cx="0" cy="0" r="1" gradientUnits="userSpaceOnUse" gradientTransform="translate(18.6459 17.2911) scale(3.24432)">
<stop stop-color="#45425A"/>
<stop offset="0.4759" stop-color="#424059"/>
<stop offset="0.7742" stop-color="#3A3B56"/>
<stop offset="1" stop-color="#2D3251"/>
</radialGradient>
<linearGradient id="paint15_linear_1373_14370" x1="17.2963" y1="17.5106" x2="20.2149" y2="17.5106" gradientUnits="userSpaceOnUse">
<stop stop-color="#C6E56F"/>
<stop offset="0.3371" stop-color="#C4E56F"/>
<stop offset="0.4953" stop-color="#BCE36E"/>
<stop offset="0.6162" stop-color="#AFE16D"/>
<stop offset="0.7182" stop-color="#9DDD6B"/>
<stop offset="0.8083" stop-color="#85D968"/>
<stop offset="0.8899" stop-color="#68D365"/>
<stop offset="0.9635" stop-color="#46CD61"/>
<stop offset="1" stop-color="#32C95F"/>
</linearGradient>
<linearGradient id="paint16_linear_1373_14370" x1="20.1604" y1="18.9154" x2="18.8366" y2="17.5916" gradientUnits="userSpaceOnUse">
<stop offset="0.0029" stop-color="#00E7B2" stop-opacity="0"/>
<stop offset="0.4308" stop-color="#1BC4B7" stop-opacity="0.427451"/>
<stop offset="1" stop-color="#3B9ABE"/>
</linearGradient>
<radialGradient id="paint17_radial_1373_14370" cx="0" cy="0" r="1" gradientUnits="userSpaceOnUse" gradientTransform="translate(18.7556 17.5106) scale(0.771596)">
<stop stop-color="#45425A"/>
<stop offset="0.4759" stop-color="#424059"/>
<stop offset="0.7742" stop-color="#3A3B56"/>
<stop offset="1" stop-color="#2D3251"/>
</radialGradient>
<linearGradient id="paint18_linear_1373_14370" x1="13.2963" y1="14.4528" x2="9.53687" y2="16.3606" gradientUnits="userSpaceOnUse">
<stop stop-color="#FF6E3A"/>
<stop offset="0.1596" stop-color="#FF6440"/>
<stop offset="0.4266" stop-color="#FF4B52"/>
<stop offset="0.7662" stop-color="#FF216E"/>
<stop offset="1" stop-color="#FF0084"/>
</linearGradient>
<linearGradient id="paint19_linear_1373_14370" x1="4.13994" y1="11.3022" x2="10.2862" y2="17.4484" gradientUnits="userSpaceOnUse">
<stop stop-color="#FF6E3A"/>
<stop offset="0.1596" stop-color="#FF6440"/>
<stop offset="0.4266" stop-color="#FF4B52"/>
<stop offset="0.7662" stop-color="#FF216E"/>
<stop offset="1" stop-color="#FF0084"/>
</linearGradient>
<linearGradient id="paint20_linear_1373_14370" x1="18.7949" y1="13.7299" x2="18.7949" y2="15.1748" gradientUnits="userSpaceOnUse">
<stop stop-color="#FF6E3A"/>
<stop offset="0.1596" stop-color="#FF6440"/>
<stop offset="0.4266" stop-color="#FF4B52"/>
<stop offset="0.7662" stop-color="#FF216E"/>
<stop offset="1" stop-color="#FF0084"/>
</linearGradient>
<linearGradient id="paint21_linear_1373_14370" x1="18.6486" y1="15.7364" x2="16.5052" y2="13.593" gradientUnits="userSpaceOnUse">
<stop stop-color="#E58200" stop-opacity="0"/>
<stop offset="0.2413" stop-color="#DA760F" stop-opacity="0.243137"/>
<stop offset="0.7044" stop-color="#BC5737" stop-opacity="0.705882"/>
<stop offset="1" stop-color="#A64153"/>
</linearGradient>
<linearGradient id="paint22_linear_1373_14370" x1="18.6129" y1="10.8441" x2="11.1555" y2="14.8524" gradientUnits="userSpaceOnUse">
<stop stop-color="#FF6E3A"/>
<stop offset="0.1596" stop-color="#FF6440"/>
<stop offset="0.4266" stop-color="#FF4B52"/>
<stop offset="0.7662" stop-color="#FF216E"/>
<stop offset="1" stop-color="#FF0084"/>
</linearGradient>
<linearGradient id="paint23_linear_1373_14370" x1="13.4072" y1="7.34468" x2="13.4072" y2="7.9506" gradientUnits="userSpaceOnUse">
<stop stop-color="#45425A"/>
<stop offset="0.4759" stop-color="#424059"/>
<stop offset="0.7742" stop-color="#3A3B56"/>
<stop offset="1" stop-color="#2D3251"/>
</linearGradient>
<linearGradient id="paint24_linear_1373_14370" x1="18.1045" y1="11.2349" x2="15.351" y2="8.48148" gradientUnits="userSpaceOnUse">
<stop stop-color="#E58200" stop-opacity="0"/>
<stop offset="0.2413" stop-color="#DA760F" stop-opacity="0.243137"/>
<stop offset="0.7044" stop-color="#BC5737" stop-opacity="0.705882"/>
<stop offset="1" stop-color="#A64153"/>
</linearGradient>
<linearGradient id="paint25_linear_1373_14370" x1="15.7132" y1="7.00665" x2="16.9817" y2="7.00665" gradientUnits="userSpaceOnUse">
<stop stop-color="#FFD459"/>
<stop offset="0.2296" stop-color="#FFD355"/>
<stop offset="0.4362" stop-color="#FFCF4A"/>
<stop offset="0.634" stop-color="#FFC838"/>
<stop offset="0.825" stop-color="#FFBF1F"/>
<stop offset="1" stop-color="#FFB400"/>
</linearGradient>
<linearGradient id="paint26_linear_1373_14370" x1="15.1601" y1="6.57932" x2="16.1818" y2="9.58905" gradientUnits="userSpaceOnUse">
<stop stop-color="#FF6E3A"/>
<stop offset="0.1596" stop-color="#FF6440"/>
<stop offset="0.4266" stop-color="#FF4B52"/>
<stop offset="0.7662" stop-color="#FF216E"/>
<stop offset="1" stop-color="#FF0084"/>
</linearGradient>
<linearGradient id="paint27_linear_1373_14370" x1="8.58481" y1="9.58973" x2="8.58481" y2="10.3679" gradientUnits="userSpaceOnUse">
<stop stop-color="#45425A"/>
<stop offset="0.4759" stop-color="#424059"/>
<stop offset="0.7742" stop-color="#3A3B56"/>
<stop offset="1" stop-color="#2D3251"/>
</linearGradient>
<linearGradient id="paint28_linear_1373_14370" x1="5.45821" y1="15.3496" x2="3.49113" y2="11.1081" gradientUnits="userSpaceOnUse">
<stop stop-color="#E58200" stop-opacity="0"/>
<stop offset="0.2413" stop-color="#DA760F" stop-opacity="0.243137"/>
<stop offset="0.7044" stop-color="#BC5737" stop-opacity="0.705882"/>
<stop offset="1" stop-color="#A64153"/>
</linearGradient>
<linearGradient id="paint29_linear_1373_14370" x1="5.08139" y1="15.7108" x2="5.08139" y2="14.3422" gradientUnits="userSpaceOnUse">
<stop stop-color="#E58200" stop-opacity="0"/>
<stop offset="0.2413" stop-color="#DA760F" stop-opacity="0.243137"/>
<stop offset="0.7044" stop-color="#BC5737" stop-opacity="0.705882"/>
<stop offset="1" stop-color="#A64153"/>
</linearGradient>
<linearGradient id="paint30_linear_1373_14370" x1="5.08139" y1="16.8141" x2="5.08139" y2="15.4455" gradientUnits="userSpaceOnUse">
<stop stop-color="#E58200" stop-opacity="0"/>
<stop offset="0.2413" stop-color="#DA760F" stop-opacity="0.243137"/>
<stop offset="0.7044" stop-color="#BC5737" stop-opacity="0.705882"/>
<stop offset="1" stop-color="#A64153"/>
</linearGradient>
<linearGradient id="paint31_linear_1373_14370" x1="5.88162" y1="6.17123" x2="10.96" y2="6.17194" gradientUnits="userSpaceOnUse">
<stop stop-color="#FFD459"/>
<stop offset="0.2296" stop-color="#FFD355"/>
<stop offset="0.4362" stop-color="#FFCF4A"/>
<stop offset="0.634" stop-color="#FFC838"/>
<stop offset="0.825" stop-color="#FFBF1F"/>
<stop offset="1" stop-color="#FFB400"/>
</linearGradient>
<linearGradient id="paint32_linear_1373_14370" x1="8.14697" y1="6.42353" x2="5.03944" y2="3.31513" gradientUnits="userSpaceOnUse">
<stop stop-color="#E58200" stop-opacity="0"/>
<stop offset="0.1923" stop-color="#DE7B09" stop-opacity="0.192157"/>
<stop offset="0.5014" stop-color="#CD6920" stop-opacity="0.501961"/>
<stop offset="0.8866" stop-color="#B04B46" stop-opacity="0.886275"/>
<stop offset="1" stop-color="#A64153"/>
</linearGradient>
<linearGradient id="paint33_linear_1373_14370" x1="5.47596" y1="3.3389" x2="6.95267" y2="5.87922" gradientUnits="userSpaceOnUse">
<stop stop-color="#FF6E3A"/>
<stop offset="0.1596" stop-color="#FF6440"/>
<stop offset="0.4266" stop-color="#FF4B52"/>
<stop offset="0.7662" stop-color="#FF216E"/>
<stop offset="1" stop-color="#FF0084"/>
</linearGradient>
<linearGradient id="paint34_linear_1373_14370" x1="6.03111" y1="8.17009" x2="6.03092" y2="9.50731" gradientUnits="userSpaceOnUse">
<stop stop-color="#FFE600" stop-opacity="0"/>
<stop offset="1" stop-color="#F59500"/>
</linearGradient>
<linearGradient id="paint35_linear_1373_14370" x1="3.583" y1="8.43327" x2="4.87176" y2="8.43327" gradientUnits="userSpaceOnUse">
<stop stop-color="#45425A"/>
<stop offset="0.4759" stop-color="#424059"/>
<stop offset="0.7742" stop-color="#3A3B56"/>
<stop offset="1" stop-color="#2D3251"/>
</linearGradient>
<linearGradient id="paint36_linear_1373_14370" x1="3.58311" y1="7.64522" x2="5.62788" y2="7.64522" gradientUnits="userSpaceOnUse">
<stop stop-color="#45425A"/>
<stop offset="0.4759" stop-color="#424059"/>
<stop offset="0.7742" stop-color="#3A3B56"/>
<stop offset="1" stop-color="#2D3251"/>
</linearGradient>
<clipPath id="clip0_1373_14370">
<rect width="20" height="20" fill="white" transform="translate(2 2)"/>
</clipPath>
</defs>
</svg>
