<svg width="8" height="14" viewBox="0 0 8 14" fill="none" xmlns="http://www.w3.org/2000/svg">
<path d="M7.54 6.29004L1.88 0.640037C1.78703 0.546308 1.67643 0.471914 1.55457 0.421145C1.43271 0.370377 1.30201 0.344238 1.17 0.344238C1.03799 0.344238 0.90728 0.370377 0.78542 0.421145C0.663561 0.471914 0.55296 0.546308 0.459997 0.640037C0.273746 0.827399 0.169205 1.08085 0.169205 1.34504C0.169205 1.60922 0.273746 1.86267 0.459997 2.05004L5.41 7.05004L0.459997 12C0.273746 12.1874 0.169205 12.4409 0.169205 12.705C0.169205 12.9692 0.273746 13.2227 0.459997 13.41C0.552612 13.5045 0.663057 13.5797 0.784932 13.6312C0.906807 13.6827 1.03769 13.7095 1.17 13.71C1.3023 13.7095 1.43319 13.6827 1.55506 13.6312C1.67694 13.5797 1.78738 13.5045 1.88 13.41L7.54 7.76004C7.6415 7.66639 7.72251 7.55274 7.77792 7.42624C7.83333 7.29974 7.86193 7.16314 7.86193 7.02504C7.86193 6.88693 7.83333 6.75033 7.77792 6.62383C7.72251 6.49733 7.6415 6.38368 7.54 6.29004Z" fill="#9AA6AC"/>
</svg>
