<svg width="20" height="21" viewBox="0 0 20 21" fill="none" xmlns="http://www.w3.org/2000/svg">
<path d="M3 16.4999H7.24C7.37161 16.5007 7.50207 16.4755 7.62391 16.4257C7.74574 16.3759 7.85656 16.3026 7.95 16.2099L14.87 9.27994L17.71 6.49994C17.8037 6.40698 17.8781 6.29637 17.9289 6.17452C17.9797 6.05266 18.0058 5.92195 18.0058 5.78994C18.0058 5.65793 17.9797 5.52722 17.9289 5.40536C17.8781 5.2835 17.8037 5.1729 17.71 5.07994L13.47 0.789939C13.377 0.696211 13.2664 0.621816 13.1446 0.571048C13.0227 0.520279 12.892 0.494141 12.76 0.494141C12.628 0.494141 12.4973 0.520279 12.3754 0.571048C12.2536 0.621816 12.143 0.696211 12.05 0.789939L9.23 3.61994L2.29 10.5499C2.19732 10.6434 2.12399 10.7542 2.07423 10.876C2.02446 10.9979 1.99924 11.1283 2 11.2599V15.4999C2 15.7652 2.10536 16.0195 2.29289 16.207C2.48043 16.3946 2.73478 16.4999 3 16.4999ZM12.76 2.90994L15.59 5.73994L14.17 7.15994L11.34 4.32994L12.76 2.90994ZM4 11.6699L9.93 5.73994L12.76 8.56994L6.83 14.4999H4V11.6699ZM19 18.4999H1C0.734784 18.4999 0.48043 18.6053 0.292893 18.7928C0.105357 18.9804 0 19.2347 0 19.4999C0 19.7652 0.105357 20.0195 0.292893 20.207C0.48043 20.3946 0.734784 20.4999 1 20.4999H19C19.2652 20.4999 19.5196 20.3946 19.7071 20.207C19.8946 20.0195 20 19.7652 20 19.4999C20 19.2347 19.8946 18.9804 19.7071 18.7928C19.5196 18.6053 19.2652 18.4999 19 18.4999Z" fill="#9AA6AC"/>
</svg>
