<svg width="18" height="22" viewBox="0 0 18 22" fill="none" xmlns="http://www.w3.org/2000/svg">
<path d="M17.46 8.62982C17.3196 7.16873 16.8032 5.7689 15.9612 4.56664C15.1191 3.36437 13.9801 2.40065 12.655 1.76931C11.3299 1.13798 9.86388 0.860541 8.39972 0.964024C6.93555 1.06751 5.52314 1.54838 4.3 2.35982C3.2492 3.06247 2.36706 3.98912 1.71695 5.07321C1.06684 6.1573 0.664898 7.37193 0.540003 8.62982C0.417485 9.87948 0.574677 11.1407 1.00017 12.3221C1.42567 13.5035 2.1088 14.5753 3 15.4598L8.3 20.7698C8.39297 20.8636 8.50357 20.9379 8.62543 20.9887C8.74729 21.0395 8.87799 21.0656 9.01 21.0656C9.14201 21.0656 9.27272 21.0395 9.39458 20.9887C9.51644 20.9379 9.62704 20.8636 9.72 20.7698L15 15.4598C15.8912 14.5753 16.5743 13.5035 16.9998 12.3221C17.4253 11.1407 17.5825 9.87948 17.46 8.62982ZM13.6 14.0498L9 18.6498L4.4 14.0498C3.72209 13.3719 3.20281 12.5521 2.87947 11.6496C2.55614 10.747 2.43679 9.78402 2.53 8.82982C2.62382 7.86092 2.93177 6.92498 3.43157 6.08966C3.93138 5.25435 4.61056 4.54053 5.42 3.99982C6.48095 3.29506 7.72631 2.91912 9 2.91912C10.2737 2.91912 11.5191 3.29506 12.58 3.99982C13.387 4.53844 14.0647 5.2491 14.5644 6.08076C15.064 6.91242 15.3733 7.84442 15.47 8.80982C15.5663 9.76725 15.4484 10.7341 15.125 11.6404C14.8016 12.5466 14.2807 13.3697 13.6 14.0498ZM9 4.99982C8.10999 4.99982 7.23996 5.26374 6.49994 5.75821C5.75992 6.25267 5.18314 6.95548 4.84255 7.77775C4.50195 8.60001 4.41284 9.50481 4.58647 10.3777C4.7601 11.2506 5.18869 12.0525 5.81802 12.6818C6.44736 13.3111 7.24918 13.7397 8.1221 13.9134C8.99501 14.087 9.89981 13.9979 10.7221 13.6573C11.5443 13.3167 12.2471 12.7399 12.7416 11.9999C13.2361 11.2599 13.5 10.3898 13.5 9.49982C13.4974 8.30716 13.0224 7.1641 12.1791 6.32076C11.3357 5.47742 10.1927 5.00246 9 4.99982ZM9 11.9998C8.50555 11.9998 8.0222 11.8532 7.61108 11.5785C7.19995 11.3038 6.87952 10.9133 6.6903 10.4565C6.50109 9.99971 6.45158 9.49705 6.54804 9.01209C6.6445 8.52714 6.88261 8.08169 7.23224 7.73205C7.58187 7.38242 8.02732 7.14432 8.51228 7.04786C8.99723 6.95139 9.4999 7.0009 9.95671 7.19012C10.4135 7.37934 10.804 7.69977 11.0787 8.1109C11.3534 8.52202 11.5 9.00537 11.5 9.49982C11.5 10.1629 11.2366 10.7987 10.7678 11.2676C10.2989 11.7364 9.66304 11.9998 9 11.9998Z" fill="#2B2A28"/>
</svg>
