<svg width="19" height="21" viewBox="0 0 19 21" fill="none" xmlns="http://www.w3.org/2000/svg">
<path d="M18.125 13C18.1228 12.3997 17.9405 11.8139 17.6018 11.3183C17.2631 10.8227 16.7835 10.4401 16.225 10.22L18.095 3.22001C18.1341 3.07093 18.1381 2.91484 18.1069 2.76392C18.0757 2.61301 18.01 2.47135 17.915 2.35001C17.8179 2.23632 17.6965 2.14585 17.5598 2.08528C17.423 2.02471 17.2745 1.99557 17.125 2.00001H3.425L3.095 0.74001C3.03763 0.52692 2.91138 0.338794 2.73593 0.204945C2.56047 0.0710953 2.34568 -0.000958872 2.125 9.63738e-06H0.125V2.00001H1.355L3.835 11.26C3.8936 11.4782 4.02434 11.6701 4.20592 11.8044C4.38751 11.9388 4.60924 12.0077 4.835 12H15.125C15.3902 12 15.6446 12.1054 15.8321 12.2929C16.0196 12.4804 16.125 12.7348 16.125 13C16.125 13.2652 16.0196 13.5196 15.8321 13.7071C15.6446 13.8947 15.3902 14 15.125 14H2.125C1.85978 14 1.60543 14.1054 1.41789 14.2929C1.23036 14.4804 1.125 14.7348 1.125 15C1.125 15.2652 1.23036 15.5196 1.41789 15.7071C1.60543 15.8947 1.85978 16 2.125 16H3.305C3.14054 16.4531 3.08769 16.9392 3.15093 17.4171C3.21417 17.895 3.39165 18.3506 3.66832 18.7454C3.94499 19.1401 4.31272 19.4624 4.74035 19.6849C5.16799 19.9074 5.64295 20.0235 6.125 20.0235C6.60705 20.0235 7.08201 19.9074 7.50965 19.6849C7.93728 19.4624 8.30501 19.1401 8.58168 18.7454C8.85835 18.3506 9.03583 17.895 9.09907 17.4171C9.16231 16.9392 9.10946 16.4531 8.945 16H11.305C11.1553 16.4126 11.0979 16.853 11.137 17.2902C11.176 17.7274 11.3106 18.1507 11.531 18.5302C11.7515 18.9098 12.0526 19.2363 12.413 19.4868C12.7735 19.7373 13.1845 19.9056 13.6171 19.98C14.0497 20.0543 14.4933 20.0328 14.9167 19.917C15.34 19.8012 15.7328 19.5939 16.0674 19.3097C16.4019 19.0255 16.67 18.6714 16.8527 18.2723C17.0355 17.8732 17.1284 17.4389 17.125 17C17.1231 16.4834 16.9852 15.9764 16.725 15.53C17.1526 15.2604 17.5052 14.8871 17.7499 14.4448C17.9947 14.0025 18.1237 13.5055 18.125 13ZM14.215 10H5.625L3.965 4.00001H15.825L14.215 10ZM6.125 18C5.92722 18 5.73388 17.9414 5.56943 17.8315C5.40498 17.7216 5.27681 17.5654 5.20112 17.3827C5.12543 17.2 5.10563 16.9989 5.14421 16.8049C5.1828 16.6109 5.27804 16.4328 5.41789 16.2929C5.55775 16.153 5.73593 16.0578 5.92991 16.0192C6.12389 15.9806 6.32496 16.0004 6.50768 16.0761C6.69041 16.1518 6.84659 16.28 6.95647 16.4444C7.06635 16.6089 7.125 16.8022 7.125 17C7.125 17.2652 7.01964 17.5196 6.83211 17.7071C6.64457 17.8947 6.39022 18 6.125 18ZM14.125 18C13.9272 18 13.7339 17.9414 13.5694 17.8315C13.405 17.7216 13.2768 17.5654 13.2011 17.3827C13.1254 17.2 13.1056 16.9989 13.1442 16.8049C13.1828 16.6109 13.278 16.4328 13.4179 16.2929C13.5577 16.153 13.7359 16.0578 13.9299 16.0192C14.1239 15.9806 14.325 16.0004 14.5077 16.0761C14.6904 16.1518 14.8466 16.28 14.9565 16.4444C15.0664 16.6089 15.125 16.8022 15.125 17C15.125 17.2652 15.0196 17.5196 14.8321 17.7071C14.6446 17.8947 14.3902 18 14.125 18Z" fill="#FFCC00"/>
</svg>
