<svg width="40" height="40" viewBox="0 0 40 40" fill="none" xmlns="http://www.w3.org/2000/svg">
<rect width="40" height="40" rx="20" fill="white" fill-opacity="0.8"/>
<path d="M16.46 20.71L22.12 26.36C22.213 26.4537 22.3236 26.5281 22.4454 26.5789C22.5673 26.6296 22.698 26.6558 22.83 26.6558C22.962 26.6558 23.0927 26.6296 23.2146 26.5789C23.3364 26.5281 23.447 26.4537 23.54 26.36C23.7263 26.1726 23.8308 25.9191 23.8308 25.655C23.8308 25.3908 23.7263 25.1373 23.54 24.95L18.59 19.95L23.54 15C23.7263 14.8126 23.8308 14.5591 23.8308 14.295C23.8308 14.0308 23.7263 13.7773 23.54 13.59C23.4474 13.4955 23.3369 13.4203 23.2151 13.3688C23.0932 13.3173 22.9623 13.2905 22.83 13.29C22.6977 13.2905 22.5668 13.3173 22.4449 13.3688C22.3231 13.4203 22.2126 13.4955 22.12 13.59L16.46 19.24C16.3585 19.3336 16.2775 19.4473 16.2221 19.5738C16.1667 19.7003 16.1381 19.8369 16.1381 19.975C16.1381 20.1131 16.1667 20.2497 16.2221 20.3762C16.2775 20.5027 16.3585 20.6163 16.46 20.71Z" fill="#2B2A28"/>
</svg>
