<svg width="57" height="56" viewBox="0 0 57 56" fill="none" xmlns="http://www.w3.org/2000/svg">
<rect x="0.666656" width="56" height="56" rx="28" fill="#FAFAFA"/>
<g clip-path="url(#clip0_146_6484)">
<path fill-rule="evenodd" clip-rule="evenodd" d="M33.776 21.0164C35.8568 21.4992 36.6528 22.7159 37.6507 24.3906H33.776V21.0164ZM21.6156 24.5312C22.023 24.5312 22.3188 24.7279 22.3188 25.1875C22.3188 25.5751 22.0051 25.8895 21.6176 25.8906H17.3698C16.9814 25.8906 16.6667 26.2056 16.6667 26.5938C16.6667 26.9821 16.9814 27.2969 17.3698 27.2969H23.6979C24.0899 27.2969 24.4038 27.6115 24.4038 28C24.4038 28.3884 24.089 28.7031 23.7007 28.7031H17.3698C16.9814 28.7031 16.6667 29.0179 16.6667 29.4062C16.6667 29.7946 16.9814 30.1094 17.3698 30.1094H18.9167V32.2188C18.9167 32.6071 19.2314 32.9219 19.6198 32.9219H21.0332C21.2851 34.163 22.3817 35.0781 23.6745 35.0781C24.9672 35.0781 26.0638 34.163 26.3158 32.9219H33.455C33.707 34.163 34.8036 35.0781 36.0963 35.0781C37.3891 35.0781 38.4857 34.163 38.7376 32.9219H39.9635C40.3519 32.9219 40.6667 32.6071 40.6667 32.2188V28C40.6667 25.937 38.4906 25.8 38.4886 25.7969H33.0729C32.6845 25.7969 32.3698 25.4821 32.3698 25.0938V20.875H19.6198C19.2314 20.875 18.9167 21.1898 18.9167 21.5781V23.125H18.0729C17.6845 23.125 17.3698 23.4398 17.3698 23.8281C17.3698 24.2165 17.6845 24.5312 18.0729 24.5312H21.6156ZM37.0078 31.4713C37.5112 31.9747 37.5112 32.7911 37.0078 33.2945C36.1982 34.1042 34.8073 33.5281 34.8073 32.3828C34.8073 31.2377 36.1982 30.6616 37.0078 31.4713ZM24.586 31.4713C25.0893 31.9747 25.0893 32.7911 24.586 33.2945C23.7763 34.1042 22.3854 33.5281 22.3854 32.3828C22.3854 31.2377 23.7763 30.6616 24.586 31.4713Z" fill="#F5C109"/>
</g>
<defs>
<clipPath id="clip0_146_6484">
<rect width="24" height="24" fill="white" transform="translate(16.6667 16)"/>
</clipPath>
</defs>
</svg>
