<svg width="57" height="56" viewBox="0 0 57 56" fill="none" xmlns="http://www.w3.org/2000/svg">
<rect x="0.333313" width="56" height="56" rx="28" fill="#F5C109"/>
<g clip-path="url(#clip0_146_6471)">
<path d="M36.1051 36.5518H20.5656V39.3775H36.1051V36.5518Z" fill="white"/>
<path d="M34.7712 19.476C34.2636 19.476 33.7661 19.5433 33.2852 19.6766C32.8757 18.9005 32.288 18.2325 31.5597 17.721C30.6211 17.0618 29.5169 16.7134 28.3663 16.7134C27.2105 16.7134 26.1022 17.0647 25.161 17.7293C24.4328 18.2436 23.8463 18.9142 23.4388 19.6927C22.9403 19.5486 22.4235 19.4759 21.8953 19.4759C18.8284 19.476 16.3333 21.9711 16.3333 25.038C16.3333 27.6169 18.1137 29.8382 20.5654 30.4398V35.0518H36.105V30.4388C38.5545 29.8357 40.3333 27.6146 40.3333 25.038C40.3333 21.9711 37.8382 19.476 34.7712 19.476Z" fill="white"/>
</g>
<defs>
<clipPath id="clip0_146_6471">
<rect width="24" height="24" fill="white" transform="translate(16.3333 16)"/>
</clipPath>
</defs>
</svg>
