<svg width="56" height="56" viewBox="0 0 56 56" fill="none" xmlns="http://www.w3.org/2000/svg">
<rect width="56" height="56" rx="28" fill="#FAFAFA"/>
<g clip-path="url(#clip0_146_6488)">
<path d="M22.0737 39.9795L22.5155 39.856C22.9405 39.7372 23.1887 39.2964 23.07 38.8714L18.0183 20.7932C17.947 20.5381 17.7773 20.3217 17.5465 20.1918C17.3157 20.0618 17.0427 20.0288 16.7875 20.1001L16.7305 20.116C16.1992 20.2645 15.8888 20.8155 16.0372 21.3468L21.0891 39.4249C21.2078 39.8499 21.6486 40.0982 22.0737 39.9795Z" fill="#F5C109"/>
<path d="M39.8635 27.3461C38.2614 26.5473 36.7794 25.5277 35.4607 24.3171C35.3498 24.2157 35.3065 24.0599 35.349 23.9158C36.0024 21.4438 36.4876 18.9305 36.8014 16.393C36.851 15.9709 36.6235 15.8468 36.3835 16.1364C31.6745 21.7682 23.5269 15.1061 18.6772 20.2247C18.7355 20.3337 18.7813 20.4489 18.8138 20.5682L22.091 32.3033C26.949 27.2468 35.0676 33.8675 39.7683 28.2482C40.0083 27.9585 40.0538 27.4289 39.8635 27.3461Z" fill="#F5C109"/>
</g>
<defs>
<clipPath id="clip0_146_6488">
<rect width="24" height="24" fill="white" transform="translate(16 16)"/>
</clipPath>
</defs>
</svg>
