<svg width="56" height="56" viewBox="0 0 56 56" fill="none" xmlns="http://www.w3.org/2000/svg">
<rect width="56" height="56" rx="28" fill="#F5C109"/>
<path fill-rule="evenodd" clip-rule="evenodd" d="M36.9427 21.7239C37.1927 21.9739 37.3331 22.313 37.3331 22.6665C37.3331 23.0201 37.1927 23.3592 36.9427 23.6092L26.276 34.2759C26.026 34.5258 25.6869 34.6663 25.3334 34.6663C24.9798 34.6663 24.6407 34.5258 24.3907 34.2759L19.0574 28.9425C18.8145 28.6911 18.6801 28.3543 18.6831 28.0047C18.6862 27.6551 18.8264 27.3207 19.0736 27.0735C19.3208 26.8262 19.6552 26.686 20.0048 26.683C20.3544 26.6799 20.6912 26.8143 20.9427 27.0572L25.3334 31.4479L35.0574 21.7239C35.3074 21.4739 35.6465 21.3335 36 21.3335C36.3536 21.3335 36.6927 21.4739 36.9427 21.7239Z" fill="white"/>
</svg>
