<svg width="21" height="22" viewBox="0 0 21 22" fill="none" xmlns="http://www.w3.org/2000/svg">
<path d="M13.835 11.7101C14.8154 10.9388 15.531 9.88105 15.8822 8.68407C16.2335 7.48709 16.2029 6.21039 15.7948 5.03159C15.3867 3.85279 14.6213 2.83052 13.6051 2.10698C12.5889 1.38344 11.3724 0.994629 10.125 0.994629C8.87755 0.994629 7.66111 1.38344 6.64493 2.10698C5.62874 2.83052 4.86334 3.85279 4.45521 5.03159C4.04708 6.21039 4.01651 7.48709 4.36776 8.68407C4.71901 9.88105 5.4346 10.9388 6.415 11.7101C4.73507 12.3832 3.26928 13.4995 2.17389 14.94C1.07849 16.3806 0.39456 18.0914 0.194997 19.8901C0.180551 20.0214 0.192113 20.1543 0.229022 20.2812C0.265931 20.408 0.327464 20.5264 0.410108 20.6294C0.577016 20.8376 0.81978 20.971 1.085 21.0001C1.35021 21.0293 1.61616 20.9519 1.82432 20.785C2.03249 20.6181 2.16582 20.3753 2.195 20.1101C2.41458 18.1553 3.34668 16.3499 4.81322 15.0389C6.27975 13.7279 8.1779 13.0032 10.145 13.0032C12.1121 13.0032 14.0102 13.7279 15.4768 15.0389C16.9433 16.3499 17.8754 18.1553 18.095 20.1101C18.1222 20.3558 18.2394 20.5828 18.4241 20.7471C18.6088 20.9115 18.8478 21.0016 19.095 21.0001H19.205C19.4671 20.97 19.7067 20.8374 19.8716 20.6314C20.0364 20.4253 20.1131 20.1625 20.085 19.9001C19.8845 18.0963 19.1969 16.3811 18.0958 14.9383C16.9948 13.4955 15.5219 12.3796 13.835 11.7101ZM10.125 11.0001C9.33387 11.0001 8.56051 10.7655 7.90272 10.326C7.24492 9.88648 6.73223 9.26176 6.42948 8.53086C6.12673 7.79995 6.04751 6.99569 6.20186 6.21976C6.3562 5.44384 6.73716 4.73111 7.29657 4.1717C7.85598 3.61229 8.56871 3.23132 9.34464 3.07698C10.1206 2.92264 10.9248 3.00186 11.6557 3.30461C12.3866 3.60736 13.0113 4.12005 13.4509 4.77784C13.8904 5.43564 14.125 6.209 14.125 7.00012C14.125 8.06099 13.7036 9.07841 12.9534 9.82855C12.2033 10.5787 11.1859 11.0001 10.125 11.0001Z" fill="#FFCC00"/>
</svg>
