<svg width="19" height="21" viewBox="0 0 19 21" fill="none" xmlns="http://www.w3.org/2000/svg">
<path d="M17.875 7.00001L11.875 1.74001C11.325 1.24805 10.6129 0.976074 9.875 0.976074C9.13707 0.976074 8.42503 1.24805 7.875 1.74001L1.875 7.00001C1.55737 7.28408 1.3039 7.63256 1.13148 8.02225C0.959047 8.41194 0.871616 8.83389 0.875003 9.26001V18C0.875003 18.7957 1.19107 19.5587 1.75368 20.1213C2.31629 20.6839 3.07935 21 3.875 21H15.875C16.6707 21 17.4337 20.6839 17.9963 20.1213C18.5589 19.5587 18.875 18.7957 18.875 18V9.25001C18.877 8.82557 18.7889 8.40555 18.6165 8.01769C18.4441 7.62983 18.1914 7.28296 17.875 7.00001ZM11.875 19H7.875V14C7.875 13.7348 7.98036 13.4804 8.1679 13.2929C8.35543 13.1054 8.60979 13 8.875 13H10.875C11.1402 13 11.3946 13.1054 11.5821 13.2929C11.7696 13.4804 11.875 13.7348 11.875 14V19ZM16.875 18C16.875 18.2652 16.7696 18.5196 16.5821 18.7071C16.3946 18.8946 16.1402 19 15.875 19H13.875V14C13.875 13.2044 13.5589 12.4413 12.9963 11.8787C12.4337 11.3161 11.6707 11 10.875 11H8.875C8.07935 11 7.31629 11.3161 6.75368 11.8787C6.19107 12.4413 5.875 13.2044 5.875 14V19H3.875C3.60979 19 3.35543 18.8946 3.1679 18.7071C2.98036 18.5196 2.875 18.2652 2.875 18V9.25001C2.87518 9.10802 2.9056 8.9677 2.96422 8.83839C3.02284 8.70907 3.10833 8.59372 3.215 8.50001L9.215 3.25001C9.39749 3.08969 9.6321 3.00127 9.875 3.00127C10.1179 3.00127 10.3525 3.08969 10.535 3.25001L16.535 8.50001C16.6417 8.59372 16.7272 8.70907 16.7858 8.83839C16.8444 8.9677 16.8748 9.10802 16.875 9.25001V18Z" fill="#FFCC00"/>
</svg>
