<svg width="200" height="150" viewBox="0 0 200 150" fill="none" xmlns="http://www.w3.org/2000/svg">
<path d="M148.844 51.7271L132.58 27.0315H67.5143L51.25 51.7271V99.5884C51.25 102.025 53.2249 104 55.6616 104H144.433C146.87 104 148.844 102.025 148.844 99.5884V51.7271Z" fill="url(#paint0_linear_1383_15160)"/>
<path d="M132.58 27.0315H121.296L137.559 51.7271V99.5884C137.559 102.025 135.584 104 133.148 104H144.434C146.87 104 148.844 102.025 148.844 99.5884V51.7271L132.58 27.0315Z" fill="url(#paint1_linear_1383_15160)"/>
<path d="M132.58 27.0315H67.5143L51.25 51.7271H148.844L132.58 27.0315Z" fill="url(#paint2_linear_1383_15160)"/>
<path d="M123.059 0H77.0358C71.7775 0 67.5143 4.26404 67.5143 9.52228V27.0315H132.58V9.52228C132.58 4.26404 128.317 0 123.059 0ZM111.769 12.6485C111.003 13.4126 109.944 13.8863 108.776 13.8863H81.1356C78.7972 13.8863 76.9041 11.9923 76.9041 9.65399C76.9041 8.48523 77.377 7.42676 78.1418 6.65948C78.9083 5.89539 79.9668 5.42169 81.1356 5.42169H108.776C111.114 5.42169 113.008 7.31567 113.008 9.65399C113.008 10.8228 112.534 11.8812 111.769 12.6485Z" fill="url(#paint3_linear_1383_15160)"/>
<path d="M123.059 0H112.346C117.605 0 121.868 4.26324 121.868 9.52228V27.0315H132.58V9.52228C132.58 4.26324 128.317 0 123.059 0Z" fill="url(#paint4_linear_1383_15160)"/>
<path d="M51.25 83.5812V99.5884C51.25 102.025 53.2249 104 55.6616 104H144.433C146.87 104 148.844 102.025 148.844 99.5884V83.5812H51.25Z" fill="url(#paint5_linear_1383_15160)"/>
<path d="M88.0743 68.0984L123.975 104H139.743C142.179 104 144.154 102.025 144.154 99.5884V67.1884L103.997 27.0315H86.7167V66.018C86.7167 66.9479 87.2753 67.7462 88.0743 68.0984Z" fill="url(#paint6_linear_1383_15160)"/>
<path d="M101.723 68.2928H88.9916C87.7355 68.2928 86.7167 67.2748 86.7167 66.018V27.0315H103.997V66.018C103.997 67.2748 102.979 68.2928 101.723 68.2928Z" fill="url(#paint7_linear_1383_15160)"/>
<path d="M58.0634 71.3127H81.3442V75.3403H58.0634V71.3127Z" fill="url(#paint8_linear_1383_15160)"/>
<path d="M58.0634 81.2651H81.3442V85.2927H58.0634V81.2651Z" fill="url(#paint9_linear_1383_15160)"/>
<path d="M58.0634 91.2174H76.6017V95.245H58.0634V91.2174Z" fill="url(#paint10_linear_1383_15160)"/>
<path d="M1.23291 144H5.47363C7.72217 144 9.07715 142.872 9.07715 141.019V141.004C9.07715 139.613 8.10303 138.58 6.60156 138.426V138.397C7.71484 138.236 8.56445 137.203 8.56445 136.09V136.075C8.56445 134.479 7.32666 133.431 5.45166 133.431H1.23291V144ZM5.05615 134.771C6.24268 134.771 6.92383 135.306 6.92383 136.273V136.288C6.92383 137.35 6.14014 137.936 4.69727 137.936H2.87354V134.771H5.05615ZM5.02686 139.203C6.59424 139.203 7.3999 139.789 7.3999 140.924V140.938C7.3999 142.066 6.60889 142.66 5.14404 142.66H2.87354V139.203H5.02686ZM15.3394 140.565L18.1738 144H20.1294L16.7529 139.913L19.9976 136.295H18.1299L15.3394 139.474H15.061V136.295H13.479V144H15.061V140.565H15.3394ZM24.2749 144.154C26.4795 144.154 27.9297 142.63 27.9297 140.147V140.133C27.9297 137.665 26.4648 136.148 24.2749 136.148C22.085 136.148 20.6201 137.672 20.6201 140.133V140.147C20.6201 142.623 22.063 144.154 24.2749 144.154ZM24.2822 142.828C23.0444 142.828 22.2388 141.854 22.2388 140.147V140.133C22.2388 138.448 23.0518 137.474 24.2749 137.474C25.5054 137.474 26.3184 138.448 26.3184 140.133V140.147C26.3184 141.847 25.52 142.828 24.2822 142.828ZM29.2847 146.563H30.8667V142.704H30.9033C31.3574 143.597 32.2437 144.154 33.335 144.154C35.2686 144.154 36.5356 142.608 36.5356 140.155V140.147C36.5356 137.687 35.2759 136.148 33.313 136.148C32.2144 136.148 31.3647 136.705 30.9033 137.621H30.8667V136.295H29.2847V146.563ZM32.9028 142.792C31.709 142.792 30.8594 141.751 30.8594 140.155V140.147C30.8594 138.543 31.7017 137.503 32.9028 137.503C34.1479 137.503 34.9243 138.507 34.9243 140.147V140.155C34.9243 141.781 34.1479 142.792 32.9028 142.792ZM40.6738 144.154C42.5635 144.154 43.8159 143.194 43.8159 141.759V141.744C43.8159 140.843 43.2593 140.228 42.2412 140.023V139.964C43.0688 139.774 43.6035 139.122 43.6035 138.294V138.28C43.6035 136.961 42.5195 136.148 40.7471 136.148C39.0112 136.148 37.876 136.969 37.6929 138.338L37.6855 138.397H39.1943L39.2017 138.346C39.3188 137.76 39.8975 137.401 40.7251 137.401C41.5601 137.401 42.0581 137.789 42.0581 138.448V138.463C42.0581 139.151 41.582 139.503 40.6519 139.503H39.5459V140.653H40.6592C41.7285 140.653 42.2412 141.004 42.2412 141.744V141.759C42.2412 142.462 41.6406 142.894 40.6665 142.894C39.7949 142.894 39.2236 142.557 39.0479 141.935L39.0259 141.861H37.4731L37.4805 141.927C37.6343 143.29 38.8721 144.154 40.6738 144.154ZM45.2075 144H46.7676L50.3052 138.587H50.3711V144H51.9458V136.295H50.3857L46.8481 141.686H46.7749V136.295H45.2075V144ZM58.6987 144H60.2808V136.295H58.6987V139.4H55.2271V136.295H53.645V144H55.2271V140.653H58.6987V144ZM65.2686 144.154C67.1362 144.154 68.3301 143.041 68.5718 141.817L68.5938 141.737H67.085L67.063 141.795C66.8652 142.374 66.2427 142.857 65.3052 142.857C64.0454 142.857 63.2471 142.008 63.2178 140.55H68.6743V140.016C68.6743 137.701 67.3486 136.148 65.188 136.148C63.0273 136.148 61.6357 137.76 61.6357 140.169V140.177C61.6357 142.608 63.0054 144.154 65.2686 144.154ZM65.1953 137.445C66.228 137.445 66.9824 138.097 67.1069 139.43H63.2397C63.3862 138.141 64.1699 137.445 65.1953 137.445ZM73.0835 144H74.6655V137.555H78.064V144H79.6533V136.295H73.0835V144ZM84.6704 144.154C86.875 144.154 88.3252 142.63 88.3252 140.147V140.133C88.3252 137.665 86.8604 136.148 84.6704 136.148C82.4805 136.148 81.0156 137.672 81.0156 140.133V140.147C81.0156 142.623 82.4585 144.154 84.6704 144.154ZM84.6777 142.828C83.4399 142.828 82.6343 141.854 82.6343 140.147V140.133C82.6343 138.448 83.4473 137.474 84.6704 137.474C85.9009 137.474 86.7139 138.448 86.7139 140.133V140.147C86.7139 141.847 85.9155 142.828 84.6777 142.828ZM91.5405 140.565L94.375 144H96.3306L92.9541 139.913L96.1987 136.295H94.3311L91.5405 139.474H91.2622V136.295H89.6802V144H91.2622V140.565H91.5405ZM99.4287 144.139C100.454 144.139 101.34 143.612 101.787 142.784H101.824V144H103.406V138.69C103.406 137.145 102.212 136.148 100.33 136.148C98.4326 136.148 97.2827 137.167 97.1729 138.492L97.1655 138.573H98.6597L98.6743 138.507C98.8062 137.892 99.3701 137.459 100.286 137.459C101.267 137.459 101.824 137.972 101.824 138.822V139.4L99.7217 139.525C97.8979 139.635 96.8579 140.455 96.8579 141.795V141.81C96.8579 143.194 97.8906 144.139 99.4287 144.139ZM98.4546 141.773V141.759C98.4546 141.107 98.9819 140.689 99.9341 140.631L101.824 140.514V141.114C101.824 142.118 100.974 142.872 99.8608 142.872C99.0112 142.872 98.4546 142.447 98.4546 141.773ZM113.176 144H114.758V136.295H113.176V139.4H109.705V136.295H108.123V144H109.705V140.653H113.176V144ZM119.746 144.154C121.614 144.154 122.808 143.041 123.049 141.817L123.071 141.737H121.562L121.541 141.795C121.343 142.374 120.72 142.857 119.783 142.857C118.523 142.857 117.725 142.008 117.695 140.55H123.152V140.016C123.152 137.701 121.826 136.148 119.666 136.148C117.505 136.148 116.113 137.76 116.113 140.169V140.177C116.113 142.608 117.483 144.154 119.746 144.154ZM119.673 137.445C120.706 137.445 121.46 138.097 121.584 139.43H117.717C117.864 138.141 118.647 137.445 119.673 137.445ZM130.095 136.295H123.687V137.555H126.096V144H127.686V137.555H130.095V136.295ZM134.299 144H135.881V137.555H139.28V144H140.869V136.295H134.299V144ZM142.576 146.563H144.158V142.704H144.194C144.648 143.597 145.535 144.154 146.626 144.154C148.56 144.154 149.827 142.608 149.827 140.155V140.147C149.827 137.687 148.567 136.148 146.604 136.148C145.505 136.148 144.656 136.705 144.194 137.621H144.158V136.295H142.576V146.563ZM146.194 142.792C145 142.792 144.15 141.751 144.15 140.155V140.147C144.15 138.543 144.993 137.503 146.194 137.503C147.439 137.503 148.215 138.507 148.215 140.147V140.155C148.215 141.781 147.439 142.792 146.194 142.792ZM154.5 144.154C156.704 144.154 158.154 142.63 158.154 140.147V140.133C158.154 137.665 156.689 136.148 154.5 136.148C152.31 136.148 150.845 137.672 150.845 140.133V140.147C150.845 142.623 152.288 144.154 154.5 144.154ZM154.507 142.828C153.269 142.828 152.463 141.854 152.463 140.147V140.133C152.463 138.448 153.276 137.474 154.5 137.474C155.73 137.474 156.543 138.448 156.543 140.133V140.147C156.543 141.847 155.745 142.828 154.507 142.828ZM160.132 146.087V144H165.815V146.087H167.273V142.733H166.079V136.295H160.461L160.183 140.426C160.11 141.466 159.854 142.381 159.29 142.733H158.667V146.087H160.132ZM164.49 142.733H160.989V142.696C161.362 142.191 161.553 141.415 161.611 140.492L161.824 137.562H164.49V142.733ZM169.148 146.571C170.657 146.571 171.462 145.956 172.034 144.359L174.905 136.295H173.235L171.294 142.564H171.243L169.302 136.295H167.588L170.393 144.007L170.261 144.374C169.998 145.121 169.587 145.318 168.84 145.318C168.628 145.318 168.445 145.289 168.32 145.26V146.498C168.511 146.534 168.84 146.571 169.148 146.571ZM177.82 140.565L180.654 144H182.61L179.233 139.913L182.478 136.295H180.61L177.82 139.474H177.542V136.295H175.959V144H177.542V140.565H177.82ZM189.319 136.295H182.91V137.555H185.32V144H186.909V137.555H189.319V136.295ZM190.476 144H193.523C195.303 144 196.453 142.967 196.453 141.341V141.327C196.453 139.708 195.303 138.675 193.523 138.675H192.058V136.295H190.476V144ZM197.368 144H198.958V136.295H197.368V144ZM193.369 139.928C194.263 139.928 194.834 140.477 194.834 141.327V141.341C194.834 142.191 194.27 142.748 193.369 142.748H192.058V139.928H193.369Z" fill="#5F5F5F"/>
<defs>
<linearGradient id="paint0_linear_1383_15160" x1="78.0668" y1="46.6357" x2="168.282" y2="160.272" gradientUnits="userSpaceOnUse">
<stop stop-color="#FFD459"/>
<stop offset="0.2296" stop-color="#FFD355"/>
<stop offset="0.4362" stop-color="#FFCF4A"/>
<stop offset="0.634" stop-color="#FFC838"/>
<stop offset="0.825" stop-color="#FFBF1F"/>
<stop offset="1" stop-color="#FFB400"/>
</linearGradient>
<linearGradient id="paint1_linear_1383_15160" x1="135.07" y1="20.2908" x2="135.07" y2="261.143" gradientUnits="userSpaceOnUse">
<stop stop-color="#E58200" stop-opacity="0"/>
<stop offset="0.0396" stop-color="#E27F04" stop-opacity="0.039216"/>
<stop offset="0.4671" stop-color="#C15D2F" stop-opacity="0.466667"/>
<stop offset="0.8016" stop-color="#AD4949" stop-opacity="0.8"/>
<stop offset="1" stop-color="#A64153"/>
</linearGradient>
<linearGradient id="paint2_linear_1383_15160" x1="86.2917" y1="33.8272" x2="211.487" y2="157.436" gradientUnits="userSpaceOnUse">
<stop stop-color="#E58200" stop-opacity="0"/>
<stop offset="0.0396" stop-color="#E27F04" stop-opacity="0.039216"/>
<stop offset="0.4671" stop-color="#C15D2F" stop-opacity="0.466667"/>
<stop offset="0.8016" stop-color="#AD4949" stop-opacity="0.8"/>
<stop offset="1" stop-color="#A64153"/>
</linearGradient>
<linearGradient id="paint3_linear_1383_15160" x1="74.8057" y1="-8.93662" x2="118.18" y2="34.4375" gradientUnits="userSpaceOnUse">
<stop stop-color="#FFD459"/>
<stop offset="0.2296" stop-color="#FFD355"/>
<stop offset="0.4362" stop-color="#FFCF4A"/>
<stop offset="0.634" stop-color="#FFC838"/>
<stop offset="0.825" stop-color="#FFBF1F"/>
<stop offset="1" stop-color="#FFB400"/>
</linearGradient>
<linearGradient id="paint4_linear_1383_15160" x1="122.463" y1="17.5891" x2="122.463" y2="56.8678" gradientUnits="userSpaceOnUse">
<stop stop-color="#E58200" stop-opacity="0"/>
<stop offset="0.0396" stop-color="#E27F04" stop-opacity="0.039216"/>
<stop offset="0.4671" stop-color="#C15D2F" stop-opacity="0.466667"/>
<stop offset="0.8016" stop-color="#AD4949" stop-opacity="0.8"/>
<stop offset="1" stop-color="#A64153"/>
</linearGradient>
<linearGradient id="paint5_linear_1383_15160" x1="100.047" y1="98.2167" x2="100.047" y2="124.143" gradientUnits="userSpaceOnUse">
<stop stop-color="#E58200" stop-opacity="0"/>
<stop offset="0.0396" stop-color="#E27F04" stop-opacity="0.039216"/>
<stop offset="0.4671" stop-color="#C15D2F" stop-opacity="0.466667"/>
<stop offset="0.8016" stop-color="#AD4949" stop-opacity="0.8"/>
<stop offset="1" stop-color="#A64153"/>
</linearGradient>
<linearGradient id="paint6_linear_1383_15160" x1="114.421" y1="65.6621" x2="-0.900355" y2="26.7809" gradientUnits="userSpaceOnUse">
<stop stop-color="#E58200" stop-opacity="0"/>
<stop offset="0.0396" stop-color="#E27F04" stop-opacity="0.039216"/>
<stop offset="0.4671" stop-color="#C15D2F" stop-opacity="0.466667"/>
<stop offset="0.8016" stop-color="#AD4949" stop-opacity="0.8"/>
<stop offset="1" stop-color="#A64153"/>
</linearGradient>
<linearGradient id="paint7_linear_1383_15160" x1="87.2581" y1="37.8724" x2="128.296" y2="83.9102" gradientUnits="userSpaceOnUse">
<stop stop-color="#FF6E3A"/>
<stop offset="0.1596" stop-color="#FF6440"/>
<stop offset="0.4266" stop-color="#FF4B52"/>
<stop offset="0.7662" stop-color="#FF216E"/>
<stop offset="1" stop-color="#FF0084"/>
</linearGradient>
<linearGradient id="paint8_linear_1383_15160" x1="58.0633" y1="73.3263" x2="81.3447" y2="73.3263" gradientUnits="userSpaceOnUse">
<stop stop-color="#45425A"/>
<stop offset="1" stop-color="#2D3251"/>
</linearGradient>
<linearGradient id="paint9_linear_1383_15160" x1="58.0633" y1="83.2789" x2="81.3447" y2="83.2789" gradientUnits="userSpaceOnUse">
<stop stop-color="#45425A"/>
<stop offset="1" stop-color="#2D3251"/>
</linearGradient>
<linearGradient id="paint10_linear_1383_15160" x1="58.0633" y1="93.2315" x2="76.6022" y2="93.2315" gradientUnits="userSpaceOnUse">
<stop stop-color="#45425A"/>
<stop offset="1" stop-color="#2D3251"/>
</linearGradient>
</defs>
</svg>
