<svg width="12" height="8" viewBox="0 0 12 8" fill="none" xmlns="http://www.w3.org/2000/svg">
<path d="M6.59168 6.94994L11.3 2.23328C11.3781 2.15581 11.4401 2.06364 11.4824 1.96209C11.5247 1.86054 11.5465 1.75162 11.5465 1.64161C11.5465 1.5316 11.5247 1.42268 11.4824 1.32113C11.4401 1.21958 11.3781 1.12741 11.3 1.04994C11.1439 0.894735 10.9327 0.807617 10.7125 0.807617C10.4924 0.807617 10.2811 0.894735 10.125 1.04994L5.95834 5.17494L1.83334 1.04994C1.67721 0.894735 1.466 0.807617 1.24584 0.807617C1.02569 0.807617 0.814479 0.894735 0.658343 1.04994C0.579603 1.12712 0.516961 1.21916 0.474048 1.32072C0.431133 1.42229 0.408802 1.53136 0.408344 1.64161C0.408802 1.75187 0.431133 1.86094 0.474048 1.9625C0.516961 2.06406 0.579603 2.1561 0.658343 2.23328L5.36668 6.94994C5.44471 7.03453 5.53942 7.10204 5.64484 7.14821C5.75025 7.19439 5.86409 7.21822 5.97918 7.21822C6.09426 7.21822 6.2081 7.19439 6.31352 7.14821C6.41893 7.10204 6.51364 7.03453 6.59168 6.94994Z" fill="#9AA6AC"/>
</svg>
