<svg width="14" height="18" viewBox="0 0 14 18" fill="none" xmlns="http://www.w3.org/2000/svg">
<path d="M6.99998 0.666748C5.23187 0.666748 3.53618 1.36913 2.28593 2.61937C1.03569 3.86961 0.333313 5.5653 0.333313 7.33342C0.333313 11.8334 6.20831 16.9167 6.45831 17.1334C6.60926 17.2625 6.80135 17.3335 6.99998 17.3335C7.19861 17.3335 7.3907 17.2625 7.54165 17.1334C7.83331 16.9167 13.6666 11.8334 13.6666 7.33342C13.6666 5.5653 12.9643 3.86961 11.714 2.61937C10.4638 1.36913 8.76809 0.666748 6.99998 0.666748ZM6.99998 15.3751C5.22498 13.7084 1.99998 10.1167 1.99998 7.33342C1.99998 6.00733 2.52676 4.73556 3.46445 3.79788C4.40213 2.8602 5.6739 2.33341 6.99998 2.33341C8.32606 2.33341 9.59783 2.8602 10.5355 3.79788C11.4732 4.73556 12 6.00733 12 7.33342C12 10.1167 8.77498 13.7167 6.99998 15.3751ZM6.99998 4.00008C6.34071 4.00008 5.69624 4.19558 5.14808 4.56185C4.59992 4.92812 4.17267 5.44872 3.92038 6.0578C3.66809 6.66689 3.60208 7.33711 3.73069 7.98372C3.85931 8.63032 4.17678 9.22426 4.64296 9.69044C5.10913 10.1566 5.70307 10.4741 6.34968 10.6027C6.99628 10.7313 7.6665 10.6653 8.27559 10.413C8.88468 10.1607 9.40527 9.73348 9.77154 9.18532C10.1378 8.63715 10.3333 7.99269 10.3333 7.33342C10.3333 6.44936 9.98212 5.60151 9.357 4.97639C8.73188 4.35127 7.88403 4.00008 6.99998 4.00008ZM6.99998 9.00008C6.67034 9.00008 6.34811 8.90233 6.07403 8.7192C5.79995 8.53606 5.58633 8.27576 5.46018 7.97122C5.33403 7.66668 5.30103 7.33157 5.36534 7.00826C5.42965 6.68496 5.58838 6.38799 5.82147 6.1549C6.05456 5.92182 6.35153 5.76308 6.67483 5.69877C6.99813 5.63446 7.33324 5.66747 7.63778 5.79362C7.94233 5.91976 8.20263 6.13338 8.38576 6.40746C8.5689 6.68155 8.66665 7.00378 8.66665 7.33342C8.66665 7.77544 8.49105 8.19937 8.17849 8.51193C7.86593 8.82449 7.44201 9.00008 6.99998 9.00008Z" fill="#5F5F5F"/>
</svg>
